<mxfile host="app.diagrams.net" agent="Mozilla/5.0 (Windows NT 10.0; Win64; x64) AppleWebKit/537.36 (KHTML, like Gecko) Chrome/138.0.0.0 Safari/537.36 Edg/138.0.0.0" version="28.0.7">
  <diagram name="K8s AI Stack" id="hws-Z2fn1xzV6OEbS_Fk">
    <mxGraphModel dx="1149" dy="562" grid="1" gridSize="10" guides="1" tooltips="1" connect="1" arrows="1" fold="1" page="1" pageScale="1" pageWidth="827" pageHeight="1169" background="light-dark(#FFFFFF,#FFFFFF)" math="0" shadow="0">
      <root>
        <mxCell id="0" />
        <mxCell id="1" parent="0" />
        <mxCell id="NNUnRyhns69cUXvrkHVL-13" value="" style="rounded=1;whiteSpace=wrap;html=1;fillColor=none;fontFamily=Helvetica;fontSize=13;labelBackgroundColor=default;strokeWidth=2;strokeColor=light-dark(#000000,#000000);textShadow=1;labelBorderColor=none;shadow=0;sketch=1;curveFitting=1;jiggle=2;" parent="1" vertex="1">
          <mxGeometry x="130" y="170" width="490" height="220" as="geometry" />
        </mxCell>
        <mxCell id="7ELZMdTYusCNaWPxi7oc-11" value="" style="rounded=1;whiteSpace=wrap;html=1;fillColor=none;fontFamily=Helvetica;fontSize=13;labelBackgroundColor=default;strokeWidth=2;strokeColor=light-dark(#000000,#000000);textShadow=1;labelBorderColor=none;shadow=0;sketch=1;curveFitting=1;jiggle=2;" vertex="1" parent="1">
          <mxGeometry x="160" y="178.75" width="450" height="201.25" as="geometry" />
        </mxCell>
        <mxCell id="NNUnRyhns69cUXvrkHVL-12" value="" style="rounded=1;whiteSpace=wrap;html=1;fillColor=none;fontFamily=Helvetica;fontSize=13;labelBackgroundColor=default;strokeWidth=2;strokeColor=light-dark(#000000,#000000);textShadow=1;labelBorderColor=none;shadow=0;sketch=1;curveFitting=1;jiggle=2;" parent="1" vertex="1">
          <mxGeometry x="30" y="211.25" width="70" height="120" as="geometry" />
        </mxCell>
        <mxCell id="NNUnRyhns69cUXvrkHVL-14" style="edgeStyle=orthogonalEdgeStyle;rounded=0;orthogonalLoop=1;jettySize=auto;html=1;exitX=1;exitY=0.5;exitDx=0;exitDy=0;fontFamily=Helvetica;fontSize=13;labelBackgroundColor=default;strokeWidth=2;strokeColor=light-dark(#000000,#000000);textShadow=0;labelBorderColor=none;shadow=0;sketch=1;curveFitting=1;jiggle=2;" parent="1" source="NNUnRyhns69cUXvrkHVL-15" edge="1" target="NNUnRyhns69cUXvrkHVL-19">
          <mxGeometry relative="1" as="geometry">
            <mxPoint x="290" y="270" as="targetPoint" />
          </mxGeometry>
        </mxCell>
        <mxCell id="NNUnRyhns69cUXvrkHVL-15" value="&lt;div&gt;&lt;span style=&quot;color: light-dark(rgb(0, 0, 0), rgb(255, 255, 255));&quot;&gt;ingress service&amp;nbsp;&lt;/span&gt;&lt;/div&gt;&lt;div&gt;&lt;span style=&quot;background-color: light-dark(#ffffff, var(--ge-dark-color, #121212));&quot;&gt;https://ai.com.tr&lt;/span&gt;&lt;/div&gt;" style="rounded=0;whiteSpace=wrap;html=1;fontFamily=Helvetica;fontSize=13;labelBackgroundColor=default;strokeWidth=2;strokeColor=light-dark(#000000,#000000);textShadow=0;labelBorderColor=none;shadow=0;sketch=1;curveFitting=1;jiggle=2;" parent="1" vertex="1">
          <mxGeometry x="180" y="256.25" width="120" height="35" as="geometry" />
        </mxCell>
        <mxCell id="7ELZMdTYusCNaWPxi7oc-3" style="edgeStyle=orthogonalEdgeStyle;rounded=0;orthogonalLoop=1;jettySize=auto;html=1;exitX=0.5;exitY=1;exitDx=0;exitDy=0;" edge="1" parent="1" source="NNUnRyhns69cUXvrkHVL-19">
          <mxGeometry relative="1" as="geometry">
            <mxPoint x="580" y="510" as="targetPoint" />
          </mxGeometry>
        </mxCell>
        <mxCell id="NNUnRyhns69cUXvrkHVL-19" value="&lt;div&gt;&lt;span style=&quot;background-color: light-dark(#ffffff, var(--ge-dark-color, #121212)); color: light-dark(rgb(0, 0, 0), rgb(255, 255, 255));&quot;&gt;openwebui - dep&lt;/span&gt;&lt;/div&gt;" style="rounded=0;whiteSpace=wrap;html=1;fontFamily=Helvetica;fontSize=13;labelBackgroundColor=default;strokeWidth=2;strokeColor=light-dark(#000000,#000000);textShadow=0;labelBorderColor=none;shadow=0;sketch=1;curveFitting=1;jiggle=2;" parent="1" vertex="1">
          <mxGeometry x="326.89" y="255" width="110" height="40" as="geometry" />
        </mxCell>
        <mxCell id="NNUnRyhns69cUXvrkHVL-26" value="client 1" style="rounded=0;whiteSpace=wrap;html=1;fontFamily=Helvetica;fontSize=13;labelBackgroundColor=default;strokeWidth=2;strokeColor=light-dark(#000000,#000000);textShadow=0;labelBorderColor=none;shadow=0;sketch=1;curveFitting=1;jiggle=2;" parent="1" vertex="1">
          <mxGeometry x="40" y="221.25" width="50" height="20" as="geometry" />
        </mxCell>
        <mxCell id="NNUnRyhns69cUXvrkHVL-27" style="edgeStyle=orthogonalEdgeStyle;rounded=0;orthogonalLoop=1;jettySize=auto;html=1;exitX=1;exitY=0.5;exitDx=0;exitDy=0;entryX=0;entryY=0.5;entryDx=0;entryDy=0;strokeWidth=2;strokeColor=light-dark(#000000,#000000);fontSize=13;fontFamily=Helvetica;textShadow=0;labelBorderColor=none;labelBackgroundColor=default;shadow=0;sketch=1;curveFitting=1;jiggle=2;" parent="1" source="NNUnRyhns69cUXvrkHVL-28" target="NNUnRyhns69cUXvrkHVL-15" edge="1">
          <mxGeometry relative="1" as="geometry">
            <Array as="points">
              <mxPoint x="60" y="270" />
              <mxPoint x="130" y="270" />
              <mxPoint x="130" y="274" />
            </Array>
          </mxGeometry>
        </mxCell>
        <mxCell id="NNUnRyhns69cUXvrkHVL-28" value="client 2" style="rounded=0;whiteSpace=wrap;html=1;fontFamily=Helvetica;fontSize=13;labelBackgroundColor=default;strokeWidth=2;strokeColor=light-dark(#000000,#000000);textShadow=0;labelBorderColor=none;shadow=0;sketch=1;curveFitting=1;jiggle=2;" parent="1" vertex="1">
          <mxGeometry x="40" y="251.25" width="50" height="20" as="geometry" />
        </mxCell>
        <mxCell id="NNUnRyhns69cUXvrkHVL-36" style="edgeStyle=orthogonalEdgeStyle;rounded=0;orthogonalLoop=1;jettySize=auto;html=1;exitX=1;exitY=0.5;exitDx=0;exitDy=0;entryX=0;entryY=0.75;entryDx=0;entryDy=0;fontFamily=Helvetica;fontSize=13;labelBackgroundColor=default;strokeWidth=2;strokeColor=light-dark(#000000,#000000);textShadow=0;labelBorderColor=none;shadow=0;sketch=1;curveFitting=1;jiggle=2;" parent="1" source="NNUnRyhns69cUXvrkHVL-37" target="NNUnRyhns69cUXvrkHVL-15" edge="1">
          <mxGeometry relative="1" as="geometry">
            <Array as="points">
              <mxPoint x="140" y="310" />
              <mxPoint x="140" y="283" />
            </Array>
          </mxGeometry>
        </mxCell>
        <mxCell id="NNUnRyhns69cUXvrkHVL-37" value="client n" style="rounded=0;whiteSpace=wrap;html=1;fontFamily=Helvetica;fontSize=13;labelBackgroundColor=default;strokeWidth=2;strokeColor=light-dark(#000000,#000000);textShadow=0;labelBorderColor=none;shadow=0;sketch=1;curveFitting=1;jiggle=2;" parent="1" vertex="1">
          <mxGeometry x="40" y="301.25" width="50" height="20" as="geometry" />
        </mxCell>
        <mxCell id="NNUnRyhns69cUXvrkHVL-43" value="&lt;font style=&quot;font-size: 14px;&quot;&gt;Data center | Cloud&lt;/font&gt;" style="rounded=0;whiteSpace=wrap;html=1;fontFamily=Helvetica;fontSize=13;labelBackgroundColor=default;strokeWidth=2;strokeColor=none;textShadow=0;labelBorderColor=none;shadow=0;sketch=1;curveFitting=1;jiggle=2;fillColor=none;fillStyle=solid;rotation=0;fontStyle=1" parent="1" vertex="1">
          <mxGeometry x="300" y="140" width="136.22" height="30" as="geometry" />
        </mxCell>
        <mxCell id="NNUnRyhns69cUXvrkHVL-44" value="Users" style="rounded=0;whiteSpace=wrap;html=1;fontFamily=Helvetica;fontSize=14;labelBackgroundColor=default;strokeWidth=2;strokeColor=none;textShadow=0;labelBorderColor=none;shadow=0;sketch=1;curveFitting=1;jiggle=2;fillColor=none;fontStyle=1" parent="1" vertex="1">
          <mxGeometry x="37.56" y="178.75" width="52.44" height="27.5" as="geometry" />
        </mxCell>
        <mxCell id="NNUnRyhns69cUXvrkHVL-45" value="" style="endArrow=none;dashed=1;html=1;dashPattern=1 2;strokeWidth=2;rounded=0;exitX=0.5;exitY=0;exitDx=0;exitDy=0;entryX=0.5;entryY=1;entryDx=0;entryDy=0;strokeColor=light-dark(#000000,#000000);fontSize=13;fontFamily=Helvetica;textShadow=0;labelBorderColor=none;labelBackgroundColor=default;shadow=0;sketch=1;curveFitting=1;jiggle=2;" parent="1" source="NNUnRyhns69cUXvrkHVL-37" target="NNUnRyhns69cUXvrkHVL-28" edge="1">
          <mxGeometry width="50" height="50" relative="1" as="geometry">
            <mxPoint x="410" y="368.25" as="sourcePoint" />
            <mxPoint x="441" y="368.25" as="targetPoint" />
          </mxGeometry>
        </mxCell>
        <mxCell id="7ELZMdTYusCNaWPxi7oc-1" value="" style="rounded=0;whiteSpace=wrap;html=1;fontFamily=Helvetica;fontSize=13;labelBackgroundColor=default;strokeWidth=2;strokeColor=light-dark(#000000,#000000);textShadow=0;labelBorderColor=none;shadow=0;sketch=1;curveFitting=1;jiggle=2;" vertex="1" parent="1">
          <mxGeometry x="480" y="190" width="110" height="80" as="geometry" />
        </mxCell>
        <mxCell id="7ELZMdTYusCNaWPxi7oc-9" style="edgeStyle=orthogonalEdgeStyle;rounded=0;orthogonalLoop=1;jettySize=auto;html=1;exitX=1;exitY=0.75;exitDx=0;exitDy=0;fontFamily=Helvetica;fontSize=13;labelBackgroundColor=default;strokeWidth=2;strokeColor=light-dark(#000000,#000000);textShadow=0;labelBorderColor=none;shadow=0;sketch=1;curveFitting=1;jiggle=2;entryX=0;entryY=0.5;entryDx=0;entryDy=0;" edge="1" parent="1" source="NNUnRyhns69cUXvrkHVL-19" target="7ELZMdTYusCNaWPxi7oc-21">
          <mxGeometry relative="1" as="geometry">
            <mxPoint x="480" y="325.625" as="targetPoint" />
            <mxPoint x="300" y="310" as="sourcePoint" />
          </mxGeometry>
        </mxCell>
        <mxCell id="7ELZMdTYusCNaWPxi7oc-10" style="edgeStyle=orthogonalEdgeStyle;rounded=0;orthogonalLoop=1;jettySize=auto;html=1;exitX=1;exitY=0.25;exitDx=0;exitDy=0;fontFamily=Helvetica;fontSize=13;labelBackgroundColor=default;strokeWidth=2;strokeColor=light-dark(#000000,#000000);textShadow=0;labelBorderColor=none;shadow=0;sketch=1;curveFitting=1;jiggle=2;entryX=0;entryY=0.75;entryDx=0;entryDy=0;" edge="1" parent="1" source="NNUnRyhns69cUXvrkHVL-19" target="7ELZMdTYusCNaWPxi7oc-1">
          <mxGeometry relative="1" as="geometry">
            <mxPoint x="590" y="390" as="targetPoint" />
            <mxPoint x="520" y="380" as="sourcePoint" />
          </mxGeometry>
        </mxCell>
        <mxCell id="7ELZMdTYusCNaWPxi7oc-12" value="" style="shape=image;verticalLabelPosition=bottom;labelBackgroundColor=default;verticalAlign=top;aspect=fixed;imageAspect=0;image=data:image/png,iVBORw0KGgoAAAANSUhEUgAAAOEAAADhCAMAAAAJbSJIAAAAh1BMVEUAAAD///+Ghob4+Pj8/Pzw8PDs7OzLy8ve3t51dXXz8/O6urpzc3NsbGz29vbY2Nibm5tERETAwMDm5uaNjY1NTU2kpKR9fX1jY2OxsbHPz8+AgIAnJyeUlJRVVVU7OzsvLy8YGBifn58ODg4fHx9GRkasrKwkJCRcXFw9PT1SUlIuLi4UFBSPUYW3AAAQ1ElEQVR4nO1de1/COg8eglxFkIuAig4UFPX7f76XAduaNL0kbfGc93fyp461z9YmTy7Nssb/u2R/PYHk8h/CqNJezRbDxWzQvuagV0S4f8tKeVhdb9hrIWyOMyjb1pVGvg7C+1mmy7p5lbGvgbB9Q+ArZHZ7hdHTI2z3DPgKeU6PMTXC7tCCr5DeNPEM0iIcfTnwFTLsJp1DSoRPcw98hXyNEs4iHcLOwRNfIfOnZPNIhXCQM/AVcugkmkkahKsPJr5C8kmSuaRA+PguwFfISwoyFx2hRs9Y8v4Yez6xETYpesaTcWTCGhWhkZ7xZNaPOamICKc2esaTm4hkLhpCJz3jySIamYuE0Iue8SQWmYuCsONLz3gSh8xFQDh5c09WKDHIXDDCwU8yfIUcgolOIMLVb1J8hbwM/hChmJ7x5COIzMkRhtEzpjzKiY4UIRk9SylrKUYZwvbzlfEVIiRzEoTTuz/AV8hCkg7gI4xMz3hyxydzXISj16AZ7u8b949Bd1hyyRwPYSg9O89uFHaTVx7R4SAMpmelAx9qZx44USt/hOzomS7lrZrBd2KQOV+Eqwj05bMeNVy8iY4fwjj07K26XxRvZLOPhTAaPcvjIsz80qxOhP2I9KweNZqs7wMR3saJnl0kAUJ31MqKMGL07CSlse7Gva2dzFkQ9qPTz9KXHcS+8Z1lrZoR7mNPI8vGl1sn8CzNtsOIMAW/XlzuHXnxn6THRRg//nmU78vNkwQfhzyEUVVoJaXJTxN+HNNQaIRPSaaQfVxunyhARweQaYSpYqBnChJOvGl5I7GQCKNr81KaSRFmpMNBInxINYXECF99EfZTzaDch6nun1G1gBTCZIu09PHTaOqMXqYUwlQT+KpGWCYaYeaJMFW2rE6xpFolBz+E94mGV9bQJNUQxEYkEHaij/t9s39CHk6/O3kcfkYfiQg0EgjjMv/l3hKmvp3MOPV9btl6IQyLagO58Qje3q8iDvil359AGGu0oXfctr+KxjF8EEYKMTzycmGjSP6ontXQEcbw7SW59/46wsCZHkPVEdof5vyp3564No4w7950YRyO7u8dya87D4RWFf58vsb6ngMKKFvW+MZFbVkp14sbYdvr9+YE2TKssLCbG+9cWR3rO9CipxpCK91Y1zOhL9iEV2ubEqg1ZbBG4TXyrSG0rgFlAZJPwhjw4siU5MVKiGJrm+KNE6GVdqvcfaX/O7B6qRJC46ivZmGboka+MUK7/w32MVY3b5bgems0mKmKfD8bjCx5I40ag7VnnWKGb4sROqJsQE9CiEvTdJuT2YmyqAvgtJV2a+OuvYWxMADQ+gp18o0Rumg3MHWqm7dukNKsWacaz6yGGZrS1arZA5N2Zfsw+cYInbHuhXp1vZpoI/+k2jf1/SsK831GOx8181CZWMs5QUy+MULX7zOoT6YX20S+iRU0XOpDgE4+XSh70eo71av1oZR2hF60e6c+1P16TyvRCTbM6qbDqmROxatnR347UH+l3ZIUtCQQQk/a/Qx+dEu8wZFuddQXpSu0JZHKhUu//e03ObRhEELfpOivnbu0KH2nviaK9RkyK6VY7bwqiHYghP45k0XDLDTzU1fPlLrgzRbv8PeRNzaEVtqN5MU4H0PxqboMb+lLjBUyrOgYZB4QIS/KR6/U/s5wORyXFgOxJRiiRaBagOMyo93UZMj1p19tuiinag6YiRQY+Ybjmh6/QYhST0tlpRfC7J1gt8wI7s6MsMW7k+6p2GjtB7jQcoxWh8gtezEjZCe3oV0sxMwaoVtjDgTr2oZdNQHoA0DIjnZTpt5Uxgj5omnWlAvGnhYg3wAh92GRDlPLEKyDFxvya1R6rNHImfMCDxMgZN5Ij/qchc6dwTgfubXeDUkAbmH4uwkhN9ptcAmP9pzSyXDPUqxgaPT6uQFxlYyoCHl2lTaHFyG2DnweRCjGEuUxUCCjqORbnSZTKVuLkLuaowMv12KGD9YyUWYZr0qNVIS8Vg/veBZIcPgaOjV4vTgcC2ZeWo2YKQiZS8FZR45ILlyEUBt9OA/CMF+iEnhXEDKT60AtjIjUZKMPXFbI08FgejrlaHTewLJlPn5lMAUh7zFBy7XL5tSTV3cbjFOoBoAK8rQ/EG5eTaoyOwUhLw8LuEfxRnKqIKlbxz2h01C/kzmVyjkZLrB0eTbxgULIqzaDJWQvxZ9+SZf4hvxBXUVL1BaUBBn+JGfNr37cGbqrr4CVVW4qssDz4vpgvtk/mZMfUsWUagj8k5ebrqdSI/SO9JwE6JnKUaAD2PvlnOqvt/3q0ddXuxcUNvN0TR1+rhGyaDcYW3n7fkeR7KIEGsCLZxWl1DxfeI4FGDdVzRm5qreoHBQobN4y1RGa4yuUqIsURgZMJfO+Aur4f9X/cAKBCvmuELJoN4iEIGeJsv3e0kS+P3CnWKyyIokVQpZFBWsR7483edfONo5Ig+giKxJYRawrhDnn5+qj1e3oRtpFV3dQAb1n0crqsGOJkBeSVGkIFeqTtQdy3YlnL8o5lghZz+dHnRdJZyVFJ6QmAGl11kYsbW2JkEW7ASem44L8wi+65AvoLZbJLi1NiZBFu2G0jhauYTTVH7gfgkFKfV/egfNbQM6MnJ8H0RhrUuk8rwAeIuT5Jur2N9tRfS9OB2fRnRBzrwyvp0nKCCDkdeNQGY155Xw3kLTKcPgv/k8jN95F3RE8hf8IEPKOeKhzM4cytULImpBhZ9GSEgK5ZtYslwAhq2fCRh3UrKJwXEOlJDh673kXzizLlXJGyKPdgJXmxstQhBeqCeQZmnczOFTIO7owVRDyot0gx2KsbUABNMzIEO0xFquBtCMvdTRQEDqK4ZCoCE076Btr0o1t5sUTMFF/Va3x1MVCQciLdqsuIBW/2vQmeo4FP34iMzcaU9tR9VR4CD9rhMxwqxXhw5am3ThXQ9e73w40EGoUkpmDuq0QMqPdxlX625sYfUMcyjN37nyagYox+Ts8c44TQuZZDpUNV1Y8O4ytPhPesNbOMu3VkryQiXBdIWT2OAAm6hQMzoYD5yGEB/M9SLm8yo36N+YZsHmFkPc7aKJ+ji/Pq1csjEHQCXskxasECLkHwEqE7P5p6qAd3xMkcLN7u8jg6XHbVY0uCNlN8HxnB0Vpt9gTRnK4E328IGSfrJZ2op6emcWzNFLFTeeftH6BkN2qTN6j+fY5u5EfjGIfjXw/I+TR7iwbBzUTD+qa3+KWi0xPCJm/Cs9MhAizAmxwQsii3ctYZ5uk0llwNtXihDD3ufRjt5ztO6z1eTv1DAy3Op0uZ3PejwbbxevB52hCXiB0Zbd3+9E9c/M0R6ubeeE4bnx00tk1/liuB9xQeWs6caVbmkeE9gLcX1471P5oNftSnWL3WwdMIB9uJzxF1rZ38egcEdppt/fqaY4Gsy99i5BNcYDk+qB5b9vxt5nWExTrI0Ir7fbKWncH6yUxz7O4fmyOEO56jx2fRJ3VFswbmb222+sV4gCFKq7qNwcT8xneHkVtZXaeoKmY9mA2w+rDxmuN5y4rsUWXQKn88X3u58uxrhisCLqZPf8Pd313ffYGXw+5+mebNnabT5umA8PvsstiQQ037K7RPrPbeyXi3B7nprEtPeidAG2LHKgpQLufFcNiDzEuMkeQtQwYdZB7DbibuUrCh+KZS5XAgkR74VCuDkeL/4fMdVrta9LtDnSmBDWI0e5qOn/a0UiAUVPAsy+59v/htvM0fnHMX97BEOwFk+OGK0/6RRjiDdc7m2KE4FnIm8pIMcLcmSFJjvXeuRYzR381qAr4eKQNcX8zcXcfQCJpq4rza+WOw+elaOIFVjjbvS/lwaFLLQLLu8igMopr11YFrVOSlcDadnHP7UXG9ZprgVqECvYgzlU/TFz8RvwWvn/uqbpaBpn49aNpEmYfHQhVoyVIoRL1XJBryNum97OAjsFwEnqNMXL31IGgISBCRZDyy/uBLo++hVwNI88Ih1Ae4L/hE0A5YHzUHtFZsbI4PuUspPc0mia6EaKkUGEiNYsUFbIn8pfwfI6X2rwfq2DXCLqa8H+42gd5nvCfyGkTW7SiAK+YBzdgWgsybK1c+R/KvWi8DzpmINKA4hjyDnLtC8KAdqKItKgQ4TR1eg1JuUrekYbiVT+rUmdI5coYr9NWtdsg56LOnkGzX9tTHHFjHqGv5cwZLrtF3H4S2+5WuWegl0q5ONBcVqoWh9rEzQZhTZRc22gVB2eNCkvX6J0OX9bZDdJ6Kojbw5faukQo1zZa3OTkqsLjTHT+7lv/mdYXQ955uySVlU6Xt/bVIrijD6TvTZEUsJIL3qJVFrfE/e+re9dWS7zef/Wg5h3kJCZ7Bg37Xa5Hu8Xfiag9E8Uuiwkq0bEfgDYvD/DOiKPO4u/AKE9YftJZEUfpiCUdZv+h2IgZTjoHaJsdnpsqtoCx9Qi33GVSXVdYOSK+pQWi3fOxpA3kXwIF6h2uE3krX+QqKWL3fMz9QOUuD1wYaCfIW/q/mHoirG2ewacRoXwmiGbhvR7w/RVjvvd2sMjJqTwak75t+TxwrBIjlBN5e4vk1mg1Hs4PPx/vm5/DbrneW1OgIa398VrS9HXIzZfyk4dAQjp7ayRSt0i8M91IwhslH41WyMcE9HVE2Nyg/u+94NcY9GkG4hQyxSrykDEMZ/J9xdLP20OoLz5RCOVB4kLCFmrY18Io/kAyw5Bh3KUJdhGT44z8Qonpq2QhH5YOKj4MSFCYSmMM7D5A28iLTwsJ+KK1gR6Z/Bf5F5EqSz7y/khJe1s9FnmGgvoSkg2hWNvUUcQiCthzg2w/HlSqJSbcJi/F6INKl0v5NlblKnhdPxm/gzpd9S41lG/lJpI6qcbNYfayZbH0Jfnrj+Vs9dRvVUqo1Zp2VjPoPpTROVnkQvClVeF6uexCQ3+1zdv8dX4wFIhc3rQofmjp22yLlAi0TZmMkAQgylSOwFSZtIwLIf9pbqrbSkT+ZG0f57ZGu9japiQVsvBymVJlJ0St1dP2eB5T21QNPGUhiMrQMP1Dew8OR8SSlUCvopRSs12ZNNY61ZsZcxCyknfVYpFmXCtiyTGKrpOMLoSM11GnvKXZyDrq6r9O310ut7PE1X/bVwpN/hHMapn6uxjOMxruIl7fsrC6w4A8mFXHB3wD3u4qa48yZc/B6rHk0er6KXnaG70rvAShZxKvfv5igIr77LcO3Oel/RC2vE6LVYow5AOKW9ZN3n3iCV5nNry0TfU82UdSVSk1o1cZlNdJML9Ty14G7vISPb93Y5BLDsuLffvFLT3PZXs19JsdX0AnDwJYfODzvnHrRaW8jvR7I/Q04kELlCnuU3E8hC1xSVEi2fhGLb27B8iT/GnE+xymf3+EZF8LF4l/doTRAUJeGhFfPLUME2HMD3YHCqfPLQdhK/7X3mXyycmNsPqUhCT5YwqrcwivE8s/Q9vwcrDMXjNRvg4eKMzGHNxuOvJCnljiPjsdhrDhOrOZWvRPi8dG+Nfaht2fiN/zKaSkKFz4dRCCrlZBBS+B4vikUCSEf6htuFpGijCkgDFIftxTi4Twr7SNqAuarLtcWOWSVHjNgMIQBpUUSYX8qlAyhGEFjCKRfvxEirCRXxkgLm5OjzCsgJEv1o8HJkEYUoEmEHm1nBzhVelbQNFqAMJG91ox1F/ZV13CEbK/4y2Um6CS1TCEjXZyjJ9reb/TGAiPMtre3C2HlNxV0lNkAeT5IjekjCch6zMWwn+6/Ifw3y//A7JH37yVitw1AAAAAElFTkSuQmCC;" vertex="1" parent="1">
          <mxGeometry x="170" y="183.75" width="30" height="30" as="geometry" />
        </mxCell>
        <mxCell id="7ELZMdTYusCNaWPxi7oc-13" style="edgeStyle=orthogonalEdgeStyle;rounded=0;orthogonalLoop=1;jettySize=auto;html=1;exitX=1;exitY=0.5;exitDx=0;exitDy=0;entryX=0;entryY=0.25;entryDx=0;entryDy=0;strokeWidth=2;strokeColor=light-dark(#000000,#000000);fontSize=13;fontFamily=Helvetica;textShadow=0;labelBorderColor=none;labelBackgroundColor=default;shadow=0;sketch=1;curveFitting=1;jiggle=2;" edge="1" parent="1" source="NNUnRyhns69cUXvrkHVL-26" target="NNUnRyhns69cUXvrkHVL-15">
          <mxGeometry relative="1" as="geometry">
            <mxPoint x="90" y="260" as="sourcePoint" />
            <mxPoint x="200" y="275" as="targetPoint" />
            <Array as="points">
              <mxPoint x="140" y="230" />
              <mxPoint x="140" y="265" />
            </Array>
          </mxGeometry>
        </mxCell>
        <mxCell id="7ELZMdTYusCNaWPxi7oc-16" value="" style="shape=image;verticalLabelPosition=bottom;labelBackgroundColor=default;verticalAlign=top;aspect=fixed;imageAspect=0;image=data:image/jpeg,/9j/4AAQSkZJRgABAQAAAQABAAD/4gxYSUNDX1BST0ZJTEUAAQEAAAxITGlubwIQAABtbnRyUkdCIFhZWiAHzgACAAkABgAxAABhY3NwTVNGVAAAAABJRUMgc1JHQgAAAAAAAAAAAAAAAAAA9tYAAQAAAADTLUhQICAAAAAAAAAAAAAAAAAAAAAAAAAAAAAAAAAAAAAAAAAAAAAAAAAAAAAAAAAAAAAAABFjcHJ0AAABUAAAADNkZXNjAAABhAAAAGx3dHB0AAAB8AAAABRia3B0AAACBAAAABRyWFlaAAACGAAAABRnWFlaAAACLAAAABRiWFlaAAACQAAAABRkbW5kAAACVAAAAHBkbWRkAAACxAAAAIh2dWVkAAADTAAAAIZ2aWV3AAAD1AAAACRsdW1pAAAD+AAAABRtZWFzAAAEDAAAACR0ZWNoAAAEMAAAAAxyVFJDAAAEPAAACAxnVFJDAAAEPAAACAxiVFJDAAAEPAAACAx0ZXh0AAAAAENvcHlyaWdodCAoYykgMTk5OCBIZXdsZXR0LVBhY2thcmQgQ29tcGFueQAAZGVzYwAAAAAAAAASc1JHQiBJRUM2MTk2Ni0yLjEAAAAAAAAAAAAAABJzUkdCIElFQzYxOTY2LTIuMQAAAAAAAAAAAAAAAAAAAAAAAAAAAAAAAAAAAAAAAAAAAAAAAAAAAAAAAAAAAAAAAAAAWFlaIAAAAAAAAPNRAAEAAAABFsxYWVogAAAAAAAAAAAAAAAAAAAAAFhZWiAAAAAAAABvogAAOPUAAAOQWFlaIAAAAAAAAGKZAAC3hQAAGNpYWVogAAAAAAAAJKAAAA+EAAC2z2Rlc2MAAAAAAAAAFklFQyBodHRwOi8vd3d3LmllYy5jaAAAAAAAAAAAAAAAFklFQyBodHRwOi8vd3d3LmllYy5jaAAAAAAAAAAAAAAAAAAAAAAAAAAAAAAAAAAAAAAAAAAAAAAAAAAAAAAAAAAAAABkZXNjAAAAAAAAAC5JRUMgNjE5NjYtMi4xIERlZmF1bHQgUkdCIGNvbG91ciBzcGFjZSAtIHNSR0IAAAAAAAAAAAAAAC5JRUMgNjE5NjYtMi4xIERlZmF1bHQgUkdCIGNvbG91ciBzcGFjZSAtIHNSR0IAAAAAAAAAAAAAAAAAAAAAAAAAAAAAZGVzYwAAAAAAAAAsUmVmZXJlbmNlIFZpZXdpbmcgQ29uZGl0aW9uIGluIElFQzYxOTY2LTIuMQAAAAAAAAAAAAAALFJlZmVyZW5jZSBWaWV3aW5nIENvbmRpdGlvbiBpbiBJRUM2MTk2Ni0yLjEAAAAAAAAAAAAAAAAAAAAAAAAAAAAAAAAAAHZpZXcAAAAAABOk/gAUXy4AEM8UAAPtzAAEEwsAA1yeAAAAAVhZWiAAAAAAAEwJVgBQAAAAVx/nbWVhcwAAAAAAAAABAAAAAAAAAAAAAAAAAAAAAAAAAo8AAAACc2lnIAAAAABDUlQgY3VydgAAAAAAAAQAAAAABQAKAA8AFAAZAB4AIwAoAC0AMgA3ADsAQABFAEoATwBUAFkAXgBjAGgAbQByAHcAfACBAIYAiwCQAJUAmgCfAKQAqQCuALIAtwC8AMEAxgDLANAA1QDbAOAA5QDrAPAA9gD7AQEBBwENARMBGQEfASUBKwEyATgBPgFFAUwBUgFZAWABZwFuAXUBfAGDAYsBkgGaAaEBqQGxAbkBwQHJAdEB2QHhAekB8gH6AgMCDAIUAh0CJgIvAjgCQQJLAlQCXQJnAnECegKEAo4CmAKiAqwCtgLBAssC1QLgAusC9QMAAwsDFgMhAy0DOANDA08DWgNmA3IDfgOKA5YDogOuA7oDxwPTA+AD7AP5BAYEEwQgBC0EOwRIBFUEYwRxBH4EjASaBKgEtgTEBNME4QTwBP4FDQUcBSsFOgVJBVgFZwV3BYYFlgWmBbUFxQXVBeUF9gYGBhYGJwY3BkgGWQZqBnsGjAadBq8GwAbRBuMG9QcHBxkHKwc9B08HYQd0B4YHmQesB78H0gflB/gICwgfCDIIRghaCG4IggiWCKoIvgjSCOcI+wkQCSUJOglPCWQJeQmPCaQJugnPCeUJ+woRCicKPQpUCmoKgQqYCq4KxQrcCvMLCwsiCzkLUQtpC4ALmAuwC8gL4Qv5DBIMKgxDDFwMdQyODKcMwAzZDPMNDQ0mDUANWg10DY4NqQ3DDd4N+A4TDi4OSQ5kDn8Omw62DtIO7g8JDyUPQQ9eD3oPlg+zD88P7BAJECYQQxBhEH4QmxC5ENcQ9RETETERTxFtEYwRqhHJEegSBxImEkUSZBKEEqMSwxLjEwMTIxNDE2MTgxOkE8UT5RQGFCcUSRRqFIsUrRTOFPAVEhU0FVYVeBWbFb0V4BYDFiYWSRZsFo8WshbWFvoXHRdBF2UXiReuF9IX9xgbGEAYZRiKGK8Y1Rj6GSAZRRlrGZEZtxndGgQaKhpRGncanhrFGuwbFBs7G2MbihuyG9ocAhwqHFIcexyjHMwc9R0eHUcdcB2ZHcMd7B4WHkAeah6UHr4e6R8THz4faR+UH78f6iAVIEEgbCCYIMQg8CEcIUghdSGhIc4h+yInIlUigiKvIt0jCiM4I2YjlCPCI/AkHyRNJHwkqyTaJQklOCVoJZclxyX3JicmVyaHJrcm6CcYJ0kneierJ9woDSg/KHEooijUKQYpOClrKZ0p0CoCKjUqaCqbKs8rAis2K2krnSvRLAUsOSxuLKIs1y0MLUEtdi2rLeEuFi5MLoIuty7uLyQvWi+RL8cv/jA1MGwwpDDbMRIxSjGCMbox8jIqMmMymzLUMw0zRjN/M7gz8TQrNGU0njTYNRM1TTWHNcI1/TY3NnI2rjbpNyQ3YDecN9c4FDhQOIw4yDkFOUI5fzm8Ofk6Njp0OrI67zstO2s7qjvoPCc8ZTykPOM9Ij1hPaE94D4gPmA+oD7gPyE/YT+iP+JAI0BkQKZA50EpQWpBrEHuQjBCckK1QvdDOkN9Q8BEA0RHRIpEzkUSRVVFmkXeRiJGZ0arRvBHNUd7R8BIBUhLSJFI10kdSWNJqUnwSjdKfUrESwxLU0uaS+JMKkxyTLpNAk1KTZNN3E4lTm5Ot08AT0lPk0/dUCdQcVC7UQZRUFGbUeZSMVJ8UsdTE1NfU6pT9lRCVI9U21UoVXVVwlYPVlxWqVb3V0RXklfgWC9YfVjLWRpZaVm4WgdaVlqmWvVbRVuVW+VcNVyGXNZdJ114XcleGl5sXr1fD19hX7NgBWBXYKpg/GFPYaJh9WJJYpxi8GNDY5dj62RAZJRk6WU9ZZJl52Y9ZpJm6Gc9Z5Nn6Wg/aJZo7GlDaZpp8WpIap9q92tPa6dr/2xXbK9tCG1gbbluEm5rbsRvHm94b9FwK3CGcOBxOnGVcfByS3KmcwFzXXO4dBR0cHTMdSh1hXXhdj52m3b4d1Z3s3gReG54zHkqeYl553pGeqV7BHtje8J8IXyBfOF9QX2hfgF+Yn7CfyN/hH/lgEeAqIEKgWuBzYIwgpKC9INXg7qEHYSAhOOFR4Wrhg6GcobXhzuHn4gEiGmIzokziZmJ/opkisqLMIuWi/yMY4zKjTGNmI3/jmaOzo82j56QBpBukNaRP5GokhGSepLjk02TtpQglIqU9JVflcmWNJaflwqXdZfgmEyYuJkkmZCZ/JpomtWbQpuvnByciZz3nWSd0p5Anq6fHZ+Ln/qgaaDYoUehtqImopajBqN2o+akVqTHpTilqaYapoum/adup+CoUqjEqTepqaocqo+rAqt1q+msXKzQrUStuK4trqGvFq+LsACwdbDqsWCx1rJLssKzOLOutCW0nLUTtYq2AbZ5tvC3aLfguFm40blKucK6O7q1uy67p7whvJu9Fb2Pvgq+hL7/v3q/9cBwwOzBZ8Hjwl/C28NYw9TEUcTOxUvFyMZGxsPHQce/yD3IvMk6ybnKOMq3yzbLtsw1zLXNNc21zjbOts83z7jQOdC60TzRvtI/0sHTRNPG1EnUy9VO1dHWVdbY11zX4Nhk2OjZbNnx2nba+9uA3AXcit0Q3ZbeHN6i3ynfr+A24L3hROHM4lPi2+Nj4+vkc+T85YTmDeaW5x/nqegy6LzpRunQ6lvq5etw6/vshu0R7ZzuKO6070DvzPBY8OXxcvH/8ozzGfOn9DT0wvVQ9d72bfb794r4Gfio+Tj5x/pX+uf7d/wH/Jj9Kf26/kv+3P9t////2wBDAAYEBQYFBAYGBQYHBwYIChAKCgkJChQODwwQFxQYGBcUFhYaHSUfGhsjHBYWICwgIyYnKSopGR8tMC0oMCUoKSj/2wBDAQcHBwoIChMKChMoGhYaKCgoKCgoKCgoKCgoKCgoKCgoKCgoKCgoKCgoKCgoKCgoKCgoKCgoKCgoKCgoKCgoKCj/wAARCAFSAlgDASIAAhEBAxEB/8QAHwAAAQUBAQEBAQEAAAAAAAAAAAECAwQFBgcICQoL/8QAtRAAAgEDAwIEAwUFBAQAAAF9AQIDAAQRBRIhMUEGE1FhByJxFDKBkaEII0KxwRVS0fAkM2JyggkKFhcYGRolJicoKSo0NTY3ODk6Q0RFRkdISUpTVFVWV1hZWmNkZWZnaGlqc3R1dnd4eXqDhIWGh4iJipKTlJWWl5iZmqKjpKWmp6ipqrKztLW2t7i5usLDxMXGx8jJytLT1NXW19jZ2uHi4+Tl5ufo6erx8vP09fb3+Pn6/8QAHwEAAwEBAQEBAQEBAQAAAAAAAAECAwQFBgcICQoL/8QAtREAAgECBAQDBAcFBAQAAQJ3AAECAxEEBSExBhJBUQdhcRMiMoEIFEKRobHBCSMzUvAVYnLRChYkNOEl8RcYGRomJygpKjU2Nzg5OkNERUZHSElKU1RVVldYWVpjZGVmZ2hpanN0dXZ3eHl6goOEhYaHiImKkpOUlZaXmJmaoqOkpaanqKmqsrO0tba3uLm6wsPExcbHyMnK0tPU1dbX2Nna4uPk5ebn6Onq8vP09fb3+Pn6/9oADAMBAAIRAxEAPwD6pooooAKKKKACiiigAooooAKKKKACiiigAooooAKKKKACiiigAooooAKKKKACiiigAooooAKKKKACiiigAooooAKKKKACiiigAooooAKKKKACiiigAooooAKKKKACiiigAooooAKKKKACiiigAooooAKKKKACiiigAooooAKKKKACiiigAooooAKKKKACiiigAooooAKKKKACiiigAooooAKKKKACiiigAooooAKKKKACiiigAooooAKKKKACiiigAooooAKKKKACiiigAooooAKKKKACiiigAooooAKKKKACiiigAooooAKKKKACiiigAooooAKKKKACiiigAooooAKKKKACiiigAooooAKKKKACiiigAooooAKKKKACiiigAooooAKKKKACiiigAooooAKKKKACiiigAooooAKKKKACiiigAooooAKKKKACiiigAooooAKKKKACiiigAooooAKKKKACiiigAooooAKKwPFfjHw/4SW2PiPVbbThclhD57Eb9uN2MDtkfnXPf8Ll+Hv/AENemf8Afbf4UAegUV5//wALl+Hv/Q16Z/323+FH/C5fh7/0Nemf99t/hQB6BRXn/wDwuX4e/wDQ16Z/323+FH/C5fh7/wBDXpn/AH23+FAHoFFef/8AC5fh7/0Nemf99t/hR/wuX4e/9DXpn/fbf4UAegUV5/8A8Ll+Hv8A0Nemf99t/hR/wuX4e/8AQ16Z/wB9t/hQB6BRXn//AAuX4e/9DXpn/fbf4Uf8Ll+Hv/Q16Z/323+FAHoFFef/APC5fh7/ANDXpn/fbf4Uf8Ll+Hv/AENemf8Afbf4UAegUV5//wALl+Hv/Q16Z/323+FH/C5fh7/0Nemf99t/hQB6BRXn/wDwuX4e/wDQ16Z/323+FH/C5fh7/wBDXpn/AH23+FAHoFFcRpvxX8DanqFtY2HibT57u5kWKGJHOXdjgAcdSa7egAooooAKKKKACiiigAooooAKKKKACiiigAooooAKKKKACiiigAooooAKKKKACiiigAooooAKKKKACiiigAooooAKKKKACiiigAooooAKKKKACiiigAooooAKKKKACiiigAooooAKKKKACiiigAooooA+XP24iRZ+D8H/AJaXX8oq+T8n1NfWH7cf/Hn4P/66XX8oq+TqAFyfU0ZPqaSigBcn1NGT6mkooAXJ9TRk+ppKKAFyfU0ZPqaSigBcn1NGT6mkooAXJ9TRk+ppKKAFyfU0ZPqaSigBcn1NGT6mkooA7L4OE/8AC1vCHJ/5Ctt/6MFfpFX5ufBz/kq/hD/sK23/AKMFfpHQAUUUUAFFFFABRRRQAUUUUAFFFFABRRRQAUUUUAFFFFABRRRQAUUUUAFFFFABRRRQAUUUUAFFFFABRRRQAUUUUAFFFFABRRRQAUUUUAFFFFABRRRQAUUUUAFFFFABRRRQAUUUUAFFFcH8QPiz4R8Ch49Z1NJL8DIsbUebOfqo4X/gRFAHeVXv760062a4v7qC1t1+9LPIEUfUnivjrx1+1D4i1MyQeFLODRrY5AnlAnnPvz8q/kfrXhviDxFrHiK7Nzrup3moT5yGuZmfH0B4A+lAH3V4j+Pvw90NmT+2v7QmXrHp8TTf+PcJ+tec6x+1lpse4aN4YvLj+611crF+ihv518j81c07StQ1JtunWN3dt0xBC0h/QGgD6d0G6j/acvJrbxDG2iw6Cvmw/YX3tIZjghi4xx5YxgdzXRN+yn4T2YGta6G9d0X8tlcX+zJcJ8NLvXbrx+k3h2DUIoVtG1GF4fPKFi23I5xuXP1Fe9R/Gj4eSNtXxXpwP+0WUfmVoA8pvf2TdJdT9h8T38LdvOtkk/kVrjtb/ZU8S2yM2ka3pd9josyvAx+nDD9a+ptI8c+FdYIGl+I9IunPRIryMt/3znNdECCMg8UAfnT4o+EPjrw0HfUvDl60CdZrYC4QD1JTOB9cVwjKVJDAgjgg9q/VLFcb40+GfhHxkjnXdEtZbhv+XqJfKmHvvXBP45FAH5u0V9LfET9l3UrESXfgi/GowjJ+xXZEcw9lf7rfjtr531jSr/RdQlsdWs7iyvIjh4Z4yjL+B/nQBRooooAKKKKACiiigAooooAKKKKAOx+Dn/JV/CH/AGFbb/0YK/SOvzc+Dn/JV/CH/YVtv/Rgr9I6ACiiigAooooAKKKKACiiigAooooAKKKKACiiigAooooAKKKKACiiigAooooAKKKKACiiigAooooAKKKKACiiigAooooAKKKKACiiigAooooAKKKKACiiigAooooAKKKZPNHbwvNPIkcUalnd2CqoHUknoKAH1yXxB+IfhvwFYC48Q36xSuMxWsfzzzf7qenucD3rxD4w/tKQWRm0r4fGO5uBlX1R1zGh/wCmSn7x/wBo8egPWvlTV9UvtZ1Ga/1W7nvLyZt0k0zl2Y+5NAHsnxO/aK8TeKWls9AZtB0psriB83Eg/wBqT+H6Lj6mvEZHeV2eRizscsxOST6k1JZWlxfXcVrZQS3FzKwSOKJSzOx6AAck19QfCT9mYyJDqfxCdkBwy6VA+D/21cdP91fz7UAfPHhDwd4g8YX32Tw5pVzfSj77RrhI/dnOFX8TX0L4I/ZVlkWOfxnrIizgm004bm+hkYY/JT9a+otG0nT9E0+Kw0iyt7KziGEhgjCKPwHf3q7QB574X+DfgPw4qGy8O2c8y/8ALa8H2hyfX58gfgBXe29vDbRLFbxJFGvRI1CgfgKi1HULLTLVrnUbu3tLZfvSzyCNB+JIFeaeIPj98PNGdo/7b+3yjqljC0w/764X9aAPMf24jiz8H4/56XX8oq+T8n1NfV3iqe1/aZu7az8KyS6VHoIeSaTUYxmXzsBdqoT08s5ye4rLP7Jmp7MjxVZF/T7G+Pz3UAfMua6nwt8QfFnhZ1Oha/f2qL0hEpeI/VGyv6V6nrX7LnjOzUvpt5pGojsiytE5/Blx+teT+LPAvifwjJt8RaLe2K5wJXTMbH2cZU/nQB734C/anu4njtvG2lJcRdDeWA2OPdoycH8CPpX0p4N8ZaB4y04XvhzU4L2IAb1U4kjPo6H5lP1FfmZWj4f1zVPDupxajol9PY3sX3ZYX2n6H1HseDQB+oVcz468DeHvHGmmz8RadFcgD93MPllhPqjjkfToe4NeNfBj9oyy154NH8bmHT9UYhIr5flgnPYN/wA82/8AHT7dK+iwQRkHIoA+FfjB8Atc8ECbUtG8zWNAX5jKi/voB/00QdQP7w49QK8Wr9UyARg8ivnL45fs82mtpca34GhitNV5ebTxhIbj1Kdkf2+6fbrQB8cUVPfWlxYXc1rewSW9zC5SSKVSrIw6gg9DUFABRRRQAUUUUAFFFFAHY/Bz/kq/hD/sK23/AKMFfpHX5ufBz/kq/hD/ALCtt/6MFfpHQAUUUUAFFFFABRRRQAUUUUAFFFFABRRRQAUUUUAFFFFABRRRQAUUUUAFFFFABRRRQAUUUUAFFFFABRRRQAUUUUAFFFFABRRRQAUUUUAFFFFABRRRQAUUUUAFFFcf8U/HunfDvwtJrGpxyzFn8m3gjHM0pBIXPRRgEknsO54oA0/GfizRvBuiS6r4gvEtbVOADy8jdkRerMfT88CviH4y/GrW/iHO9nbl9N8PK3yWaN80vo0pH3j/ALPQe55rkfiN471vx/rz6nrtxuxlYLdMiK3T+6i/zPU965SgBa2fCHhnVfF2vW+kaFavc3sx4A4VF7ux/hUdyag8N6HqHiTXLPSNHt2uL67kEcUa+vck9gBkk9gDX6A/Bz4ZaZ8N/Dq2tsEuNUnAa9vdvMrf3V9EHYfieTQBn/Br4O6L8ObJLjCX3iCRMTXzr93PVIgfur79T39B6hRXjPxu+OWmeAUl0vSRFqPiQj/U5zFbZ6GUjv6IOfXHcA9K8X+LNE8IaU2o+ItRhsrYZClzlpD/AHUUcsfYCvl74i/tRajeNLaeBrJbC35AvbtQ8ze6p91fx3fhXgfi3xRrPi3WJdT8QX817dv/ABOflQf3VUcKvsKx4YpJ5UihRpJXYKqKMlieAAO5oA0/EPiLWPEd4brXtTu9QnJ4a4lL7fYA8AewrK5r6P8Ahd+zLqOrxQ6h44uJdLtWwy2MODcMP9snIT6YJ+lfRHh34Q+A9AiRbLwzp0jqP9bdx/aHJ9cvn9MUAeC/sPcav4t/64W3/oT19bA56V8wftZTyeCR4WuvBznQbidrhZpNN/0YyhRHtDbMbgMnAOeprznwT+0j4z0KeNNali12xB+ZLlQkoH+zIo6/7wNAH3LUVzbw3UEkFzFHNDINrxyKGVh6EHg1y3w1+IGh/ELRBqGhTnemFuLWXAlgY9mHoexHB/OuuoA+f/in+zboWvxzX3g8pouqYLfZwP8ARZT6besf1Xj2r5D8V+G9W8Ka1NpWvWUtnexdUccMOzKejKfUcV+nlcb8Tvh5ovxD0FtP1iELOgJtrxAPMt39R6j1U8H64NAH5vV9B/s//Hi48MS2/h/xhPJcaCcJBdNlpLP0B7tH7dV7ccV474/8Jaj4I8U3mhauE+025BDxnKyIeVcexHODyK56gD9T7W4hureK4tpUmglUPHJGwZXUjIII6gipK+Mf2ZfjHL4c1C28KeIpmfRLmQJaTNybSRjwP+ubE/gTnoTX2dQB498ePgzY/EKwfUdMWK08TQp+7m6LcgdEk/kG6j3FfDGr6beaPqVzp+p20tre2zmOWGUYZGHY1+pFeK/tHfCa08baDNrWnCG38Q2EJcSMQi3ESgkxuTwCBnax6dDweAD4VopTSUAFFFFABRRRQB2Pwc/5Kv4Q/wCwrbf+jBX6R1+bnwc/5Kv4Q/7Ctt/6MFfpHQAUUUUAFFFFABRRRQAUUUUAFFFFABRRRQAUUUUAFFFFABRRRQAUUUUAFFFFABRRRQAUUUUAFFFFABRRRQAUUUUAFFFFABRRRQAUUUUAFFFFABRRRQAUUUUAFcb8X/CK+N/h7q2ihR9pkj821Y/wzJ8yfTJGD7E12VFAH5XzxPBM8UyMkiMVZWGCpHBBqOvdv2sfAJ8NeNv7esYtul60TI20cR3A++P+BfeHuW9K8JoA9X/Zj8TQ+Gvi1ppu9gttRVtPd2A+QyEbCD2+dVH0Jr79r8rY3aORXjYq6kEMpwQfUV+i3wT8bR+PPh9p2qs6m/Rfs96o6rMgAY/8CGGHs1AHQeOYtUm8Ha1H4fna31c2kv2WRQCRJtO3Ge+eM9s1+Zl1LNNcSy3LvJO7FpHkJLMxPJJPJOa/U818CftLeCG8HfEm7kt4iml6qTe2xA+UEn94g/3WJ49GWgDyavsj9k34daDB4WtPGMhjv9Yui6xs68We1ipVQf4zjJb0IA75+N6+mf2NPHC2Wq3/AIQvpdsd6TdWW48eao+dB9VAP/AD60AfXdFFFAHy5+3H/wAefg//AK6XX8oq+Tq+sf24/wDjz8H/APXS6/lFXydQB1fw08bal4C8V2us6W5Ow7J4CcLPET8yN/Q9iAa/RTwrr1j4n8PWGs6TL5tleRCWNu49VPoQcgj1Br8wK+jf2SfiUmh6tP4T1m5WPTb4ma0klbCwzAfMuTwAwH5j3oA+x6+fvj18e7bwqJ9C8ISRXevcpNcjDRWZ9PRpPboO+elcV8ef2hGvhceH/AVw0dqcx3GqoSGk7FYT2X/b6ntgcn5iJJOScmgCxqN9danfT3uoXEtzdzuZJZpWLM7HqST1qvRX0L+zh8En8TT2/ibxXbldCjbfbWsgwbxh0Yj/AJ5g/wDfX06gHR/ssfB87rbxr4ltyAPn0y2kXr6TsD/47/316V9V0iIqIFRQqgYAAwAKSWRIo2klZURQWZmOAAOpJoAVmCKWYgAckntXxz+0r8av+Ehkn8LeFLn/AIkyHbeXcZ/4+2B+4p/55g9T/Efbq/8AaJ+Ox14XPhnwbcMuk5Md3fIcG69UQ9o/U/xfTr84UAJRRS4oASiiigAooooA7H4Of8lX8If9hW2/9GCv0jr83Pg5/wAlX8If9hW2/wDRgr9I6ACiiigAooooAKKKKACiiigAooooAKKKKACiiigAooooAKKKKACiiigAooooAKKKKACiiigAooooAKKKKACiiigAooooAKKKKACiiigAooooAKKKKACiiigAooooA5X4neDbTx34Mv8AQr3CGZd8ExGfJmXlH/A8H1BI71+cuvaTeaDrN5peqQtBe2krQyxt2YH9R3B7jFfqJXzp+1d8K217TT4v0KAtqllHi9iQczwL/GPVkH5r/uigD42r2P8AZk+Io8E+NhZalNs0TVisE5Y/LDJn93J7AE7T7NntXjp4ooA/VMHNed/HT4fR/EPwPcWMKoNWtibiwkbjEgH3CfRhwffB7Vw37LfxUXxRoaeGdbuAdc06PEDuebqAdD7svQ+owfWvfaAPyxvLaazupra6ieG4hcxyRuMMjA4II7EGptI1G60jU7XUNPmaC8tZVmhlXqrqcg19Z/tQfBt9ZSbxf4Wti+oxrm/tIl5nUD/WqB1cDqO4Geo5+QaAP0a+D3xBsviJ4Qg1O3KR30eIr22B5hlxz/wE9VPpx1Brua/Nf4beOtX+H/iSLVtFkB/gnt3P7u4jzyrD+R6g194/DD4meH/iJpYn0e4Ed6ig3FhKQJoT9P4l9GHH0PFAHif7cf8Ax5+D/wDrpdfyir5Or6x/bj/48/B//XS6/lFXydQAUtJS0AFABY4Aya6TwR4H8Q+NtRFp4c02a6YECSXG2KIerueB/P0FfYfwd+AWjeCWh1PWzFq+vr8yuy/uLc/9M1PUj+8efQCgDzL4C/s+S37W3iHx5bNFZcSW+lyDDTdw0o7L/s9T3wOD9bxRpFGscSqiKAqqowAB0AFO6Vw3xO+J/h34eaeZdZufMvnUmCwhIM0vvj+Ff9o8fU8UAdZrOq2Oi6Zcahq11DaWVuu+WaZtqqP89u9fFnx3+O1542M+i+HDLZeHAdrsfllvMd2/up6L37+g4r4rfFPX/iNqIk1OX7PpsTZt9PhY+VH7n+83+0fwwOK4CgBaKAM19E/A79nq88QNBrXjaKWy0c4eKyOUmuR2Ld0Q/wDfR9utAHC/Bn4P6x8R79ZsPY6BE+J75l+9jqkY/ib9B39D9Q+Kv2efBWseG7XTdPtG0q7tI9kN9B80jHrmUH/WZPPOD6EDivWtNsLTTLCCy063itrSBBHFDEoVEUdAAOlWaAPzw+Jnwg8VeAJZJdQszd6UD8uoWoLxY7bu6H/e49Ca87r9UZI0ljaORVdGBVlYZBB6givBvil+zfoHiTzr7wqyaHqjZbylXNrKfdRyn1Xj2oA+JqK6Hxr4O1zwVq507xFYSWk/JRjykq5+8jDhh9PxxXPUAdj8HP8Akq/hD/sK23/owV+kdfm58HP+Sr+EP+wrbf8AowV+kdABRRRQAUUUUAFFFFABRRRQAUUUUAFFFFABRRRQAUUUUAFFFFABRRRQAUUUUAFFFFABRRRQAUUUUAFFFFABRRRQAUUUUAFFFFABRRRQAUUUUAFFFFABRRRQAUUUUAFBAIwaKKAPiz9pj4ON4Wv5vE/hy3J0C5fNxBGOLOQn07RsenoeOmK+f6/U29tLe+s5rW8hjntpkMckUi7ldSMEEHqCK+I/j/8ABK68EXU2teHopLjwzI2WAyz2RP8AC3qno34HnBIB43omq3uiata6lpdxJbX1rIJYpUPKsP8APTuOK++vgh8VdP8AiRoI3GO2162QfbLPP4eYnqh/Q8HsT+fFaXhvXdS8N6zbarot3JaX1u26OWM9PUEdCD0IPBFAH6gmvnX45/s+QeI5LjXfBSRWmsOS89kSEiuT3ZT0Rz/3yfY8npvgn8cdJ8ewQ6bqzRab4kA2mAnEdyfWInv/ALB5HbNeydaAPy51jSr/AEXUZrDVrOezvITtkhnQoy/ge3vTNM1G80q+hvNNup7S7hO6OaByjofYjmv0j8b+BfDnjaxFt4j0uC72jEcuNssX+645H06e1fO3jL9lOZXkm8H64jpyVttRXBHt5iDn8VFAHP8Age0179onT7jTPE+urDceH0ElrdC0Vmk804YSYK5x5a4IweTnNSXv7KfitJMWWtaJMnrI0sZ/II3866b4FaTL8E9b1gfEma00eLVIo0spnmDxzmNmL4K5xjev3sda95t/iT4JuFBi8W6Cc9jfxA/kTQB8y6b+yj4kkcf2lr+kW6Z5MCyTH8iF/nXp/g/9mXwfo7pNrc13rk64O2Y+TDn/AHF5P4sa9Cvvir4Dsl3TeLdFI64ju1kP5LmuJ8Q/tKeAtMVxYT32rSjgC1tyqk/70m3j6ZoA9g0vTbHSLGKy0u0t7O0iGEhgjCIv0A4qr4k8R6P4Z05r/X9RtrC0X/lpO4XcfRR1Y+wBNfI/jP8Aaj8SakskPhnT7XR4TkCaQ/aJvqMgKPyNeF6/r2q+Ib9r3XNRur+6b/lpcSFyB6DPQew4oA+j/il+07LOk2n/AA/gaBDlTqd0g3/WOM8D6tz7CvmfU9QvNUv5r3Urma6u5m3yTTOXdz6knk1VqW2t5rq4jgtYZJp5DtSONSzMfQAck0ARVs+FPDOseK9Xi0zw/YTXt5J/DGOEH95m6KPc8V7X8L/2atc1xob3xi76Lpxw32YYN1IPTHSP8cn2r6y8G+END8G6SuneHdPhs7fguV5eRv7zseWP1oA8o+DH7P8ApXg/yNV8S+TquvLhkXGYLZv9kH7zD+8R9AOte60UUAFFFZfiLxBpPhvTnv8AXdRtrC0X/lpPIFBPoO5PsMmgDUrk/iF8QPD3gHSzeeIL1Y3YEw20fzTTn0Rf6nAHc14B8Tf2ocrLY+ALQjPy/wBpXifrHF/Vv++a+Zda1fUNc1KbUNXvJ729mOXmncsx/E9vbpQB3Xxk+LWr/ErUEW4jSz0e3cta2Sc7T03O38TY+gHYV5tRRQB2Pwc/5Kv4Q/7Ctt/6MFfpHX5ufBz/AJKv4Q/7Ctt/6MFfpHQAUUUUAFFFFABRRRQAUUUUAFFFFABRRRQAUUUUAFFFFABRRRQAUUUUAFFFFABRRRQAUUUUAFFFFABRRRQAUUUUAFFFFABRRRQAUUUUAFFFFABRRRQAUUUUAFFFFABRRRQAUyeGO4hkhnjSSKRSjo6hlZSMEEHqKfRQB8mfG79nOW3a41v4fQtLCSXm0kHLJ6mH1H+x19M9K+YpopIJXimRo5EYqyMMFSOoIPQ1+qFeZ/FT4M+GfiCr3FzCdP1jGF1C2UB29PMXo4+vPoRQB+fKO0bq6MVZTkEHBB9a99+F37SWueHEhsPFcT63pqAKs+7F1GP948Sf8C5964/4j/BLxf4IaWeayOpaWuSL2yUuoHq6/eT8Rj3rzHFAH6QeB/ib4S8axJ/YWsW73LDm0mPlTr7bG5P1GR712eRX5WqzKwZSQQcgjqK7zwz8X/HfhxUTTvEl60KdIbki4QD0AcHA+mKAPc/24uLPwfj/AJ6XX8oq+T6+lvBJ1D9pL7RZeMr5LNtBQSW8thbhTIZTht4YkHHljGMdTXQv+yXpxb5PFd2o9DZKf/ZqAPkjNJX2BB+yfoit/pHiTUpB/wBM4I0/nmuh0z9mLwHaYN02r357ia6CA/8AfCr/ADoA+H8Guj8LeBvE/iqRV8P6Hf3qt/y0SIiMfVzhR+Jr768P/CnwNoDK+meGNNSRfuyTRec4+jPk12iIqIERQqgYCgYA/CgD5E8Efsr6pdNHP4x1WKwh6m1sv3sp9i5+Vfw3V9G+A/hv4W8DQ7fD2lQw3BGHu5P3k7/VzyB7DA9q7CkLAAknAHegBaK4jxT8VvBHhgONV8RWImUcwQP58mfTamSPxxXjfi39qzT4N8XhXQp7pxwJ79xEn12LkkfUigD6bzXGeNfid4Q8GK413WraO5X/AJdYj5sxPpsXJH44FfE/jH42eOvFQeK71qSztH621gPITHoSPmI+pNecMzMxZiSxOST1NAH0x49/am1C68y28FaYtjEeBeXoEkv1WMfKv4lq+e/EfiLWPEuoNfa9qV1qF0f+Wk8hbaPRR0UewwKyaKACiiigAooooA7H4Of8lX8If9hW2/8ARgr9I6/Nz4Of8lX8If8AYVtv/Rgr9I6ACiiigAooooAKKKKACiiigAooooAKKKKACiiigAooooAKKKKACiiigAooooAKKKKACiiigAooooAKKKKACiiigAooooAKKKKACiiigAooooAKKKKACiiigAooooAKKKKACiiigAooooAMV5142+DHgjxezzX+jx2t6/JurE+RIT6nHysf94GvRaKAPkvxP+yheRl38MeIYJl6rDqERjI9t6ZB/wC+RXmWtfAP4i6UxzoDXkY/5aWcySg/hnd+lfoDRgUAfKP7KNlc+B9b8Rp4zhfQGuoYVt/7TH2bzirPu2F8bsZGcZ6ivpgeJdDIBGs6aQehF1H/AI185ftx/wDHn4P/AOul1/KKvk/P0/KgD9OJ/Fvhy3GZ9f0iIf7d7GP/AGasK/8Aiz4CsM+f4t0c46iK4Ep/8czX5yZ+n5UZNAH3hqv7R/w7sSwg1G8vyO1tZvz+L7RXC63+1jpyKw0Pwzdzt/C95cLEB/wFQ386+SKKAPc/EH7TfjnUdy6cNN0pCMAwW/mOPxkJH6V5h4j8c+KPEm4a5r+pXqH/AJZSTt5f/fAwo/KubooAXNJRRQAUUUUAFFFFABRRRQAUUUUAdj8HP+Sr+EP+wrbf+jBX6R1+bnwc/wCSr+EP+wrbf+jBX6R0AFFFFABRRRQAUUUUAFFFFABRRRQAUUUUAFFFFABRRRQAUUUUAFFFFABRRRQAUUUUAFFFFABRRRQAUUUUAFFFFABRRRQAUUUUAFFFFABRRRQAUUUUAFFFFABRRRQAUUUUAFFFFABRRRQAUUUUAFFFFAHy5+3H/wAefg//AK6XX8oq+T8H0r9NvFHhHQPFS2w8RaTaaiLYsYRcJu2bsZx9cD8qwf8AhUPw/wD+hS0j/vxQB+c+D6UYPpX6Mf8ACofh/wD9ClpH/fij/hUPw/8A+hS0j/vxQB+c+D6UYPpX6Mf8Kh+H/wD0KWkf9+KP+FQ/D/8A6FLSP+/FAH5z4PpRg+lfox/wqH4f/wDQpaR/34o/4VD8P/8AoUtI/wC/FAH5z4PpRg+lfox/wqH4f/8AQpaR/wB+KP8AhUPw/wD+hS0j/vxQB+c+D6UYPpX6Mf8ACofh/wD9ClpH/fij/hUPw/8A+hS0j/vxQB+c+D6UYPpX6Mf8Kh+H/wD0KWkf9+KP+FQ/D/8A6FLSP+/FAH5z4PpRg+lfox/wqH4f/wDQpaR/34o/4VD8P/8AoUtI/wC/FAH5z4PpRg+lfox/wqH4f/8AQpaR/wB+KP8AhUPw/wD+hS0j/vxQB8MfBwH/AIWt4Q4/5itt/wCjBX6RVxmnfC7wRpt/b3tj4Y0uC7t5FlilSHDI4OQR7g12dABRRRQAUUUUAFFFFABRRRQAUUUUAFFFFABRRRQAUUUUAFFFFABRRRQAUUUUAFFFFABRRRQAUUUUAFFFFABRRRQAUUUUAFFFFABRRRQAUUUUAFFFFABRRRQAUUUUAFFFFABRRRQAUUUUAFFFFABRRRQAUUUUAFFFFABRRRQAUUUUAFFFFABRRRQAUUUUAFFFFABRRRQAUUUUAFFFFABRRRQAUUUUAFFFFABRRRQAUUUUAFFFFABRRRQAUUUUAFFFFABRRRQAUUUUAFFFFABRRRQAUUUUAFFFFABRRRQAUUUUAFFFFABRRRQAUUUUAB4rwLUf2ofClhqFzaS6RrjSQSvExVIsEqSDj5/avfW6fjX5g+Lf+Rp1j/r8m/8ARjUAfXP/AA1Z4R/6A2vf9+4f/jlH/DVnhH/oDa9/37h/+OV8YUUAfZ//AA1Z4R/6A2vf9+4f/jlW7H9qPwPOwW4s9ctv9p7dGA/75cn9K+JaKAP0Z8JfFvwR4rlSHSPEFqbp+Ft7jMEhPoA4G4/TNd3X5WZNfRP7O/xxvtG1O08N+Lbt7rRrhhDb3UzZe0Y8KCx6xk8c/d69OKAPqf4g+K7fwT4Vu9evbO7u7W1KealqFLgMwXdhiBgEjNeO/wDDVnhH/oDa9/37h/8Ajle4eK9Gg8ReGtU0e6A8m+tpLdie25SAfwOD+FfmTqVnNp2oXNldpsubaVoZVP8ACykgj8waAPsq1/an8Hz3MUTaXrcSu4UyOkW1cnGTh+gr6AUhgCDkHoRX5Wiv0Z+B/iH/AISf4V+HdRdw8/2YW8x7+ZH8jE/Xbn8aAO6ooqlreowaPo99qV2dtvZwPcSHP8KKWP8AKgDyLxt+0T4X8JeKdQ0K60/Vrq4spBFJLbpGULYBIGXB4zg8dQaxP+GrPCP/AEBte/79w/8Axyvj7W9Rn1fWL7Urtt1xeTvcSH/adix/nVWCJ5pkiiUvI7BVUDJJJwBQB+kvw08bWnj/AMMrrmnWd5aWjyvEi3QUM+3ALDaSMZyPwNcD44/aH8N+D/FWoaDqGmaxNdWThHkgSMoxKhuMuD39K9G+Hfh5PCngbRdEQAGztUjkx3kxlz+LFjXwx+0f/wAls8U/9d0/9FJQB9C/8NWeEf8AoDa9/wB+4f8A45Xrvw38aWPj3wvDrul29zb20sjxhLgKHBU4P3SR+tfmnX3f+yT/AMkZsP8Ar6uP/Q6AOn+LPxQ0n4Z22mzazaX1yt87pGLVUJUoATncw/vCvOP+GrPCP/QG17/v3D/8crH/AG4f+QT4S/673P8A6DHXyRQB9n/8NWeEf+gNr3/fuH/45To/2q/BxJ8zSdfUe0UJ/wDalfF9GD6UAfcNl+074CuCBMusWuepltAQP++WNd/4T+J/gzxXIkWh+ILKa4f7tvIxilPsEcAn8K/N6nKxUggkEcg+lAH6pUV8bfAL4932jahbaD40vHu9GlIjhvZ23SWh6Dcx5aP68r16DFfZCsGUFSCDyCKAOE+LHxN0r4aWen3OsWl9cpeyPGgtVUlSoBOdzD1rzb/hqzwj/wBAbXv+/cP/AMcrL/bf/wCQB4X/AOvqf/0Ba+RKAP0D+Ffxo0P4ka5daXo9hqVtNb25uWa6VApUMq4G1jzlhXqNfGP7FH/JRdZ/7BTf+jo6+zqACiisbxnr9v4W8K6rrd5jybG3eYrnG4gfKv1JwPxoA828b/tCeEvCHie+0K+tdWurqzYJLJaxRtHuKglQWcHIzg8dc1hf8NU+Cv8AoGeIf+/EP/x2vjXVr+41TU7u/vZDJdXUrzyuf4nYkk/maq0Afan/AA1T4K/6BniH/vxD/wDHa9t8Na1Z+ItA0/WNNcvZ3sKzxFhggMM4I7EdCPUV+XtfY/7Gfi7+0PCuoeGLmTM+mSefbgnrDIeQPo+f++xQB9G0UUUAFFFFABRRRQAUUUUAFFFFABRRRQAUUUUAFFFFABRRRQAUUUUAFFFFABRRRQAUUUUAFFFFABRRRQAUUUUAFFFFABRRRQAUUUUADdPxr8wfFv8AyNOsf9fk3/oxq/T5un41+YPi3/kadY/6/Jv/AEY1AGTX1t4B/Zu8I+IfBOhaxeajriXN/ZRXMixTRBAzqCQAYycc+tfJNfpH8HP+SUeEP+wVbf8AosUAeYH9lbwVjjVPEOf+u8P/AMbrhfiH+y7c6bpk994N1OXUXhUubG6QCVwP7jrwW9iBn1r66oNAH5WurIxVwVYHBBGCDSCvUf2ltCh0H4w63HaoEguyl6qgYwZFy3/j+6vLaAP0T+AniWTxV8KdBv7mQvdpEbWdj1Lxkpk+5AB/Gvk79qrwz/YHxZvbmKPba6tGt8mOm4/LIPruUn/gVe6/sX3LS/C/UIWJPk6rIB7Axxn+eag/bM8M/wBo+BdP16GPM2lXOyRgOkMuFP5OE/M0AfF9fXX7E/iLztE1/wAPSud1tMl7CD/dcbXx9Cq/99V8i16z+y/4h/sD4waSrvtg1IPYSc4zvGU/8fVKAPvuvGv2sPEX9ifCW7tIn23GrTJZLjrs++5+m1cf8Cr2WvjX9tDxF9u8a6VoUTkxaba+bIM9JZTnH/fKr+dAHzrXp/7N/hn/AISb4t6NFKm61sWN/NxkYjwV/Nyg/GvMK+vv2KvDP2bw/rXiSaPD3kwtICevlx8sR7FmA/4BQB9LHpX56/tH/wDJbPFP/XdP/RSV+hR6V+fX7TH/ACW/xP8A9dIf/REdAHmFfd/7JP8AyRmw/wCvq4/9Dr4Qr7v/AGSf+SM2H/X1cf8AodAHD/tw/wDIJ8Jf9d7n/wBBjr5Ir63/AG4f+QT4S/673P8A6DHXyRQB7d+yp4Q0Hxj4v1e08S6dHf28Nh5saOzKFbzFGflI7E19NyfAr4bOhU+FrcA91nmB/PfXgX7Ev/I+a7/2DP8A2qlfZFAHzj49/Zd0K9spZvBt3cabfKCUt7mQywOfTJ+Zfrk/SvkjXdIvtB1e70vVrZ7a+tZDHNE/VWH8x3B6EHNfqLXyN+2v4chttZ0DxBAirJeRyWtwQMbjHgoT74Yj6KKAPmUV96fsueLZPFHwttYryUyX2lSGxkZj8zIoBjJ/4CQP+Amvgqvp79iHUHTVvFGnFsxyQQ3AX0Ksyk/+Pj8qAN39t/8A5AHhf/r6n/8AQFr5Er67/bf/AOQB4X/6+p//AEBa+RKAPob9ij/kous/9gpv/R0dfZ1fGP7FH/JRdZ/7BTf+jo6+zqACvmr9tDxd9j0DS/C1tJiW+f7XcgH/AJZIcID7F8n/AIBX0oxCgknAHevzm+Nfi3/hNPiTrOqxvus/N+z2voIU+VSPrgt/wKgDha+hPgv8K/8AhJ/gv4z1OWANfXq+VppI5BgPmEr/ALzYT8DXgVjazXt5Ba2sZkuJ5FijQdWZjgD8yK/S7wF4dh8J+DdI0K3xtsrdY2Yfxv1dvxYsfxoA/MsjBxXf/Ajxb/whnxN0jUZX2WUr/ZLvnjypMAk/7p2t/wABqX4/+Ff+ER+Kes2UUeyzuJPtlqB08uT5sD2Dbl/4DXnYoA/VMHIorzf9nzxd/wAJh8LtJu5pN99aL9iusnJ8yMAAn3ZdrfjXpFABRRRQAUUUUAFFFFABRRRQAUUUUAFFFFABRRRQAUUUUAFFFFABRRRQAUUUUAFFFFABRRRQAUUUUAFFFFABRRRQAUUUUAFFFFAA3T8a/MHxb/yNOsf9fk3/AKMav0+bp+NfmD4t/wCRp1j/AK/Jv/RjUAZNfpH8HP8AklHhD/sFW3/osV+blfpH8HP+SUeEP+wVbf8AosUAdjRRRQB8R/tloF+LFqQOW0uEn/vuQV4PXvP7Zv8AyVez/wCwVD/6MlrwagD7O/Yo/wCSdaz/ANhVv/RMde1eOdBi8T+ENY0SYDbfWrwgn+FiPlb8GwfwrxX9ij/knWs/9hVv/RMdfQ1AH5Y3dvLa3U1vcIUmicxup6qwOCPzFP028m0/ULa8tm2XFvKs0bejKQQfzFenftOeGv8AhG/i5qpij2WupY1CLAwPnzv/APHw/wCdeUUAfqD4f1eDWvDun6vAyi2vLaO5U54Csobr7Zr85PiX4gPirx7rutFtyXd27Re0YO1B+Cha+hPAvxE+w/sn6zmbGoad5mkw/wB798fkI+iyN/3xXysaAFRWdwqAsxOAAMkmv0o+FvhtfCXw+0LRNoWS1tl87jrK3zSH/vpmr4c/Z78Nf8JT8WNDtZE32ttL9tuM9NkXzYPsW2j8a/Q0UAB6V+fX7TH/ACW/xP8A9dIf/REdfoKelfn1+0x/yW/xP/10h/8AREdAHmFfd/7JP/JGbD/r6uP/AEOvhCvu/wDZJ/5IzYf9fVx/6HQBw/7cP/IJ8Jf9d7n/ANBjr5Ir63/bh/5BPhL/AK73P/oMdfJFAH0Z+xL/AMj5rv8A2DP/AGqlfZFfG/7Ev/I+a7/2DP8A2qlfZFABXzP+27PGvh7wxbkjzXuppAO+FQA/qwr6UubiG2gknuZY4oY1LvJIwVVUdSSeAK+CP2kfiDB498dZ0t/M0fTUNtbP2lOcvIPYnAHsoPegDyavo39iVT/wnOvNj5RpoBPuZV/wr5yr6v8A2IdIZbbxRrDg7XeG0jOO6hnb/wBCSgC5+2//AMgDwv8A9fU//oC18iV9d/tv/wDIA8L/APX1P/6AtfIlAH0N+xR/yUXWf+wU3/o6Ovs6vjH9ij/kous/9gpv/R0dfZ1AHmP7Rvi7/hEfhZqk0Mmy+vx9gtsHndIDuYfRAx+uK/Po17/+2J4u/tfx3beH7aTNro8X7wA8GeQBm/Jdg+pNfP8AQB7R+yh4U/4SH4owX88e6z0aM3jZ6GT7sQ+u4lv+AV92V+dnw1+LGv8Aw6sr228PQaaRdyLJLJcQF3O0YAyGHA549zXZf8NP+Pf+eWif+Arf/F0Aenfto+FftnhzSfE1umZbCX7LcEf88pOVJ9g4x/wOvj6vXvFX7QHi/wAUeHb/AEXVrfRnsr2MxyBbVgw7gg7+CCAR7ivIaAPoX9jjxf8A2V40vPDlzJi21eLfCCeBPGCR+abv++RX2fX5eeHtWudB12w1WwbbdWU6XEZ/2lIOD7cYr9MPDOs23iHw/p2r2Lbra9gSePnoGGcH3HT8KANOiiigAooooAKKKKACiiigAooooAKKKKACiiigAooooAKKKKACiiigAooooAKKKKACiiigAooooAKKKKACiiigAooooAKKKKABun41+YPi3/kadY/6/Jv/AEY1fp8elfm94o8H+JZfEurSReHdZdGu5irLYykEF25B20AcZX6R/Bz/AJJR4Q/7BVt/6LFfn3/whnij/oW9a/8AACX/AOJr9CfhLBNa/DDwpBcxSQzx6Zbo8cilWVhGMgg8g0AdZRRRQB8Sftm/8lXs/wDsFQ/+jJa8Gr6N/a68Pa1qvxPtJ9M0jUbyAaZEhkt7Z5FDeZJxlQRnkV4j/wAIZ4o/6FvWv/ACX/4mgD6v/Yo/5J1rP/YVb/0THX0NXgv7Hel6hpXgDV4dUsbqylbU2dUuYWjYr5UYyAwHHBr3qgD5w/bS8M/bPCmkeIYUBl0+c28xHXypehP0dQP+BV8dV+mHxI8Or4s8C63ojAFry1dI89BIBlD+DBTX53t4L8UhiD4b1rIOD/oMv/xNAGbFql5Fo9xpaTMLGeeO4ki7M6KyqfwDt+dUa3/+EM8Uf9C3rX/gBL/8TS/8IZ4o/wChb1r/AMAJf/iaAPpX9ijwz5Wm674mmQh53WxgJH8K4d8exJQf8Br6frjvhB4a/wCER+G+g6O6BLiG2V5xjH71/nf/AMeYj8K7GgAPSvz6/aY/5Lf4n/66Q/8AoiOv0FPSvhL9orwxr+ofGXxJc2Oh6pc20jxbJYbSR0bEKDggYPIoA8Yr7v8A2Sf+SM2H/X1cf+h18X/8IZ4o/wChb1r/AMAJf/ia+2f2WrC8034RWNvqNpcWlwtzcExTxtGwBfjggGgDz79uH/kE+Ev+u9z/AOgx18kV9i/tm6PqWraX4WXStOvL5o5rguLaBpSuVTGdoOK+Wf8AhDPFH/Qt61/4AS//ABNAGj8NfiDrPw71S6v9AW0ae5h8h/tMZcbdwbgAjnIFegy/tOePnQhRo8Z/vLaEn9WNeW/8IZ4o/wChb1r/AMAJf/iaP+EM8Uf9C3rX/gBL/wDE0AavjX4n+MPGcZh1/W7ie0Jz9mjAii9sooAP45rjK6W28A+L7lgIPC2uyHp8thL/APE11/hz4B/ELWplU6I2nQnrNfyLEF/4Dy35CgDzGytZ767htbOGSe4mcRxxRrlnYnAAHck1+ivwW8Gf8IJ8PNM0aYL9tCme7ZTkGZ+WGe+OFz6LXMfBn4HaP8PWXUbuQap4gIwLlkwkAI5ES9j23Hk+3Nev0AfM37b/APyAPC//AF9T/wDoC18iV9k/tl6RqWraH4aTStPvL147mYuttA0pUFFxnaDivlX/AIQzxR/0Letf+AEv/wATQB7P+xR/yUXWf+wU3/o6OvrnxVrVt4c8OalrN8cW1jbvO4/vbRkAe5OB+NfLP7HmgaxpPj/V5tU0nULKJtMZFe5tnjUt5sZwCwHPBr0H9rjUNYm8H2Ph7QdO1C8bUZvNumtbd5AsUeCFJUcZcqf+A0AfGmu6pc61rN9qd85e6vJ3uJW9WYkn+dP8N6Nd+Ite0/R9NVWvL6dIItxwoZjjJPYDqT6Crv8Awhnij/oW9a/8AJf/AImvcf2S/h/qS+PrnXNc0u8s4tMtz5H2q3aPdNJlQRuAzhd/TpkUAZ//AAyt41/6Cfh7/v8Azf8Axqj/AIZW8a/9BPw9/wB/5v8A41X2pRQB8V/8MreNf+gn4e/7/wA3/wAarzD4nfD7WPhzrkGma41tLJNALiOW2ZmjZSSMZIByCOePSv0jrwH9r7wZc+IfCOmatpVnNdX+m3BjaOCMu7QyDB4HJwyr+ZoA+Ka+yv2NPF39peEL/wANXMmbjSpfNgBPJgkJOB9H3f8AfQr5U/4QzxR/0Letf+AEv/xNeh/AWPxP4L+Juk6hP4f1qOwnb7Jdk2MoAikwMn5eittb/gNAH3Dr2u6V4fsjea5qNpp9rnb5tzKI1J9BnqfYUzw/4g0jxFZm60LU7PULdTtZ7aUSBT6HHQ+xrwz46xXMnj4LLI8V1LptrFoMzO0caTm9T7TtYEFZPKxkgg7M4qP4OLdf8LLtlWWWXVobS+TxBhjIkY88fZYzISfMIAYq7EsUPPSgD6LooooAKKKKACiiigAooooAKKKKACiiigAooooAKKKKACiiigAooooAKKKKACiiigAooooAKKKKACiiigAooooAKKKKACjFFFABiiiigAooooAMUYoooAKKKKACjFFFABijFFFABRRRQAUYoooAMUUUUAFGKKKADFGKKKADFGKKKACiiigAoxRRQAYoxRRQAYoxRRQAUUUUAFFFFABijFFFAFLVtK0/WbNrTV7G1vrViCYbmFZUJHQ7WBFN0bRtM0S0+y6Np1np9tnd5VrCsSZ9cKAM1fooAKKKKACiiigAooooAKKKKACiiigAooooAKKKKACiiigAooooAKKKKACiiigAooooAKKKKACiiigAooooAKKKKACiiigAooooAKKKKACiiigAooooAKKKKACiiigAooooAKKKKACiiigAooooAKKKKACiiigAooooAKKKKACiiigAooooAKKKKACiiigAooooAKKKKACiiigAooooAKKKKACiiigAooooAKKKKACiiigAooooAKKKKACiiigAooooAKKKKACiiigAooooAKKKKACiiigAooooAKKKKACiiigAooooAKKKKACiiigAooooAKKKKACiiigAooooAKKKKACiiigAooooAKKKKACiiigAooooAKKKKACiiigAooooAKKKKACiiigAooooAKKKKACiiigAooooAKKKKACiiigAooooAKKKKACiiigAooooAKKKKACiiigAooooAKKKKACiiigAooooAKKKKACiiigAooooAKKKKACiiigAooooAKKKKACiiigAooooAKKKKACiiigAooooAKKKKACiiigAooooAKKKKACiiigAooooAKKKKACiiigAooooAKKKKACiiigAooooAKKKKACiiigAooooAKKKKACiiigAooooAKKKKACiiigAooooA//Z;clipPath=inset(9.76% 22% 12.13% 20%);" vertex="1" parent="1">
          <mxGeometry x="508.64" y="208" width="52.72" height="40" as="geometry" />
        </mxCell>
        <mxCell id="7ELZMdTYusCNaWPxi7oc-19" value="&lt;div&gt;vLLM - dep&lt;/div&gt;" style="rounded=0;whiteSpace=wrap;html=1;fontFamily=Helvetica;fontSize=13;labelBackgroundColor=default;strokeWidth=2;strokeColor=light-dark(#000000,#000000);textShadow=0;labelBorderColor=none;shadow=0;sketch=1;curveFitting=1;jiggle=2;" vertex="1" parent="1">
          <mxGeometry x="500" y="190" width="70" height="17.5" as="geometry" />
        </mxCell>
        <mxCell id="7ELZMdTYusCNaWPxi7oc-20" value="&lt;div&gt;2 x L40S&lt;/div&gt;" style="rounded=0;whiteSpace=wrap;html=1;fontFamily=Helvetica;fontSize=13;labelBackgroundColor=default;strokeWidth=2;strokeColor=light-dark(#000000,#000000);textShadow=0;labelBorderColor=none;shadow=0;sketch=1;curveFitting=1;jiggle=2;" vertex="1" parent="1">
          <mxGeometry x="500" y="251.25" width="70" height="17.5" as="geometry" />
        </mxCell>
        <mxCell id="7ELZMdTYusCNaWPxi7oc-21" value="" style="rounded=0;whiteSpace=wrap;html=1;fontFamily=Helvetica;fontSize=13;labelBackgroundColor=default;strokeWidth=2;strokeColor=light-dark(#000000,#000000);textShadow=0;labelBorderColor=none;shadow=0;sketch=1;curveFitting=1;jiggle=2;" vertex="1" parent="1">
          <mxGeometry x="480" y="291.25" width="110" height="80" as="geometry" />
        </mxCell>
        <mxCell id="7ELZMdTYusCNaWPxi7oc-22" value="" style="shape=image;verticalLabelPosition=bottom;labelBackgroundColor=default;verticalAlign=top;aspect=fixed;imageAspect=0;image=data:image/jpeg,/9j/4AAQSkZJRgABAQAAAQABAAD/4gxYSUNDX1BST0ZJTEUAAQEAAAxITGlubwIQAABtbnRyUkdCIFhZWiAHzgACAAkABgAxAABhY3NwTVNGVAAAAABJRUMgc1JHQgAAAAAAAAAAAAAAAAAA9tYAAQAAAADTLUhQICAAAAAAAAAAAAAAAAAAAAAAAAAAAAAAAAAAAAAAAAAAAAAAAAAAAAAAAAAAAAAAABFjcHJ0AAABUAAAADNkZXNjAAABhAAAAGx3dHB0AAAB8AAAABRia3B0AAACBAAAABRyWFlaAAACGAAAABRnWFlaAAACLAAAABRiWFlaAAACQAAAABRkbW5kAAACVAAAAHBkbWRkAAACxAAAAIh2dWVkAAADTAAAAIZ2aWV3AAAD1AAAACRsdW1pAAAD+AAAABRtZWFzAAAEDAAAACR0ZWNoAAAEMAAAAAxyVFJDAAAEPAAACAxnVFJDAAAEPAAACAxiVFJDAAAEPAAACAx0ZXh0AAAAAENvcHlyaWdodCAoYykgMTk5OCBIZXdsZXR0LVBhY2thcmQgQ29tcGFueQAAZGVzYwAAAAAAAAASc1JHQiBJRUM2MTk2Ni0yLjEAAAAAAAAAAAAAABJzUkdCIElFQzYxOTY2LTIuMQAAAAAAAAAAAAAAAAAAAAAAAAAAAAAAAAAAAAAAAAAAAAAAAAAAAAAAAAAAAAAAAAAAWFlaIAAAAAAAAPNRAAEAAAABFsxYWVogAAAAAAAAAAAAAAAAAAAAAFhZWiAAAAAAAABvogAAOPUAAAOQWFlaIAAAAAAAAGKZAAC3hQAAGNpYWVogAAAAAAAAJKAAAA+EAAC2z2Rlc2MAAAAAAAAAFklFQyBodHRwOi8vd3d3LmllYy5jaAAAAAAAAAAAAAAAFklFQyBodHRwOi8vd3d3LmllYy5jaAAAAAAAAAAAAAAAAAAAAAAAAAAAAAAAAAAAAAAAAAAAAAAAAAAAAAAAAAAAAABkZXNjAAAAAAAAAC5JRUMgNjE5NjYtMi4xIERlZmF1bHQgUkdCIGNvbG91ciBzcGFjZSAtIHNSR0IAAAAAAAAAAAAAAC5JRUMgNjE5NjYtMi4xIERlZmF1bHQgUkdCIGNvbG91ciBzcGFjZSAtIHNSR0IAAAAAAAAAAAAAAAAAAAAAAAAAAAAAZGVzYwAAAAAAAAAsUmVmZXJlbmNlIFZpZXdpbmcgQ29uZGl0aW9uIGluIElFQzYxOTY2LTIuMQAAAAAAAAAAAAAALFJlZmVyZW5jZSBWaWV3aW5nIENvbmRpdGlvbiBpbiBJRUM2MTk2Ni0yLjEAAAAAAAAAAAAAAAAAAAAAAAAAAAAAAAAAAHZpZXcAAAAAABOk/gAUXy4AEM8UAAPtzAAEEwsAA1yeAAAAAVhZWiAAAAAAAEwJVgBQAAAAVx/nbWVhcwAAAAAAAAABAAAAAAAAAAAAAAAAAAAAAAAAAo8AAAACc2lnIAAAAABDUlQgY3VydgAAAAAAAAQAAAAABQAKAA8AFAAZAB4AIwAoAC0AMgA3ADsAQABFAEoATwBUAFkAXgBjAGgAbQByAHcAfACBAIYAiwCQAJUAmgCfAKQAqQCuALIAtwC8AMEAxgDLANAA1QDbAOAA5QDrAPAA9gD7AQEBBwENARMBGQEfASUBKwEyATgBPgFFAUwBUgFZAWABZwFuAXUBfAGDAYsBkgGaAaEBqQGxAbkBwQHJAdEB2QHhAekB8gH6AgMCDAIUAh0CJgIvAjgCQQJLAlQCXQJnAnECegKEAo4CmAKiAqwCtgLBAssC1QLgAusC9QMAAwsDFgMhAy0DOANDA08DWgNmA3IDfgOKA5YDogOuA7oDxwPTA+AD7AP5BAYEEwQgBC0EOwRIBFUEYwRxBH4EjASaBKgEtgTEBNME4QTwBP4FDQUcBSsFOgVJBVgFZwV3BYYFlgWmBbUFxQXVBeUF9gYGBhYGJwY3BkgGWQZqBnsGjAadBq8GwAbRBuMG9QcHBxkHKwc9B08HYQd0B4YHmQesB78H0gflB/gICwgfCDIIRghaCG4IggiWCKoIvgjSCOcI+wkQCSUJOglPCWQJeQmPCaQJugnPCeUJ+woRCicKPQpUCmoKgQqYCq4KxQrcCvMLCwsiCzkLUQtpC4ALmAuwC8gL4Qv5DBIMKgxDDFwMdQyODKcMwAzZDPMNDQ0mDUANWg10DY4NqQ3DDd4N+A4TDi4OSQ5kDn8Omw62DtIO7g8JDyUPQQ9eD3oPlg+zD88P7BAJECYQQxBhEH4QmxC5ENcQ9RETETERTxFtEYwRqhHJEegSBxImEkUSZBKEEqMSwxLjEwMTIxNDE2MTgxOkE8UT5RQGFCcUSRRqFIsUrRTOFPAVEhU0FVYVeBWbFb0V4BYDFiYWSRZsFo8WshbWFvoXHRdBF2UXiReuF9IX9xgbGEAYZRiKGK8Y1Rj6GSAZRRlrGZEZtxndGgQaKhpRGncanhrFGuwbFBs7G2MbihuyG9ocAhwqHFIcexyjHMwc9R0eHUcdcB2ZHcMd7B4WHkAeah6UHr4e6R8THz4faR+UH78f6iAVIEEgbCCYIMQg8CEcIUghdSGhIc4h+yInIlUigiKvIt0jCiM4I2YjlCPCI/AkHyRNJHwkqyTaJQklOCVoJZclxyX3JicmVyaHJrcm6CcYJ0kneierJ9woDSg/KHEooijUKQYpOClrKZ0p0CoCKjUqaCqbKs8rAis2K2krnSvRLAUsOSxuLKIs1y0MLUEtdi2rLeEuFi5MLoIuty7uLyQvWi+RL8cv/jA1MGwwpDDbMRIxSjGCMbox8jIqMmMymzLUMw0zRjN/M7gz8TQrNGU0njTYNRM1TTWHNcI1/TY3NnI2rjbpNyQ3YDecN9c4FDhQOIw4yDkFOUI5fzm8Ofk6Njp0OrI67zstO2s7qjvoPCc8ZTykPOM9Ij1hPaE94D4gPmA+oD7gPyE/YT+iP+JAI0BkQKZA50EpQWpBrEHuQjBCckK1QvdDOkN9Q8BEA0RHRIpEzkUSRVVFmkXeRiJGZ0arRvBHNUd7R8BIBUhLSJFI10kdSWNJqUnwSjdKfUrESwxLU0uaS+JMKkxyTLpNAk1KTZNN3E4lTm5Ot08AT0lPk0/dUCdQcVC7UQZRUFGbUeZSMVJ8UsdTE1NfU6pT9lRCVI9U21UoVXVVwlYPVlxWqVb3V0RXklfgWC9YfVjLWRpZaVm4WgdaVlqmWvVbRVuVW+VcNVyGXNZdJ114XcleGl5sXr1fD19hX7NgBWBXYKpg/GFPYaJh9WJJYpxi8GNDY5dj62RAZJRk6WU9ZZJl52Y9ZpJm6Gc9Z5Nn6Wg/aJZo7GlDaZpp8WpIap9q92tPa6dr/2xXbK9tCG1gbbluEm5rbsRvHm94b9FwK3CGcOBxOnGVcfByS3KmcwFzXXO4dBR0cHTMdSh1hXXhdj52m3b4d1Z3s3gReG54zHkqeYl553pGeqV7BHtje8J8IXyBfOF9QX2hfgF+Yn7CfyN/hH/lgEeAqIEKgWuBzYIwgpKC9INXg7qEHYSAhOOFR4Wrhg6GcobXhzuHn4gEiGmIzokziZmJ/opkisqLMIuWi/yMY4zKjTGNmI3/jmaOzo82j56QBpBukNaRP5GokhGSepLjk02TtpQglIqU9JVflcmWNJaflwqXdZfgmEyYuJkkmZCZ/JpomtWbQpuvnByciZz3nWSd0p5Anq6fHZ+Ln/qgaaDYoUehtqImopajBqN2o+akVqTHpTilqaYapoum/adup+CoUqjEqTepqaocqo+rAqt1q+msXKzQrUStuK4trqGvFq+LsACwdbDqsWCx1rJLssKzOLOutCW0nLUTtYq2AbZ5tvC3aLfguFm40blKucK6O7q1uy67p7whvJu9Fb2Pvgq+hL7/v3q/9cBwwOzBZ8Hjwl/C28NYw9TEUcTOxUvFyMZGxsPHQce/yD3IvMk6ybnKOMq3yzbLtsw1zLXNNc21zjbOts83z7jQOdC60TzRvtI/0sHTRNPG1EnUy9VO1dHWVdbY11zX4Nhk2OjZbNnx2nba+9uA3AXcit0Q3ZbeHN6i3ynfr+A24L3hROHM4lPi2+Nj4+vkc+T85YTmDeaW5x/nqegy6LzpRunQ6lvq5etw6/vshu0R7ZzuKO6070DvzPBY8OXxcvH/8ozzGfOn9DT0wvVQ9d72bfb794r4Gfio+Tj5x/pX+uf7d/wH/Jj9Kf26/kv+3P9t////2wBDAAYEBQYFBAYGBQYHBwYIChAKCgkJChQODwwQFxQYGBcUFhYaHSUfGhsjHBYWICwgIyYnKSopGR8tMC0oMCUoKSj/2wBDAQcHBwoIChMKChMoGhYaKCgoKCgoKCgoKCgoKCgoKCgoKCgoKCgoKCgoKCgoKCgoKCgoKCgoKCgoKCgoKCgoKCj/wAARCAFSAlgDASIAAhEBAxEB/8QAHwAAAQUBAQEBAQEAAAAAAAAAAAECAwQFBgcICQoL/8QAtRAAAgEDAwIEAwUFBAQAAAF9AQIDAAQRBRIhMUEGE1FhByJxFDKBkaEII0KxwRVS0fAkM2JyggkKFhcYGRolJicoKSo0NTY3ODk6Q0RFRkdISUpTVFVWV1hZWmNkZWZnaGlqc3R1dnd4eXqDhIWGh4iJipKTlJWWl5iZmqKjpKWmp6ipqrKztLW2t7i5usLDxMXGx8jJytLT1NXW19jZ2uHi4+Tl5ufo6erx8vP09fb3+Pn6/8QAHwEAAwEBAQEBAQEBAQAAAAAAAAECAwQFBgcICQoL/8QAtREAAgECBAQDBAcFBAQAAQJ3AAECAxEEBSExBhJBUQdhcRMiMoEIFEKRobHBCSMzUvAVYnLRChYkNOEl8RcYGRomJygpKjU2Nzg5OkNERUZHSElKU1RVVldYWVpjZGVmZ2hpanN0dXZ3eHl6goOEhYaHiImKkpOUlZaXmJmaoqOkpaanqKmqsrO0tba3uLm6wsPExcbHyMnK0tPU1dbX2Nna4uPk5ebn6Onq8vP09fb3+Pn6/9oADAMBAAIRAxEAPwD6pooooAKKKKACiiigAooooAKKKKACiiigAooooAKKKKACiiigAooooAKKKKACiiigAooooAKKKKACiiigAooooAKKKKACiiigAooooAKKKKACiiigAooooAKKKKACiiigAooooAKKKKACiiigAooooAKKKKACiiigAooooAKKKKACiiigAooooAKKKKACiiigAooooAKKKKACiiigAooooAKKKKACiiigAooooAKKKKACiiigAooooAKKKKACiiigAooooAKKKKACiiigAooooAKKKKACiiigAooooAKKKKACiiigAooooAKKKKACiiigAooooAKKKKACiiigAooooAKKKKACiiigAooooAKKKKACiiigAooooAKKKKACiiigAooooAKKKKACiiigAooooAKKKKACiiigAooooAKKKKACiiigAooooAKKKKACiiigAooooAKKKKACiiigAooooAKKKKACiiigAooooAKKwPFfjHw/4SW2PiPVbbThclhD57Eb9uN2MDtkfnXPf8Ll+Hv/AENemf8Afbf4UAegUV5//wALl+Hv/Q16Z/323+FH/C5fh7/0Nemf99t/hQB6BRXn/wDwuX4e/wDQ16Z/323+FH/C5fh7/wBDXpn/AH23+FAHoFFef/8AC5fh7/0Nemf99t/hR/wuX4e/9DXpn/fbf4UAegUV5/8A8Ll+Hv8A0Nemf99t/hR/wuX4e/8AQ16Z/wB9t/hQB6BRXn//AAuX4e/9DXpn/fbf4Uf8Ll+Hv/Q16Z/323+FAHoFFef/APC5fh7/ANDXpn/fbf4Uf8Ll+Hv/AENemf8Afbf4UAegUV5//wALl+Hv/Q16Z/323+FH/C5fh7/0Nemf99t/hQB6BRXn/wDwuX4e/wDQ16Z/323+FH/C5fh7/wBDXpn/AH23+FAHoFFcRpvxX8DanqFtY2HibT57u5kWKGJHOXdjgAcdSa7egAooooAKKKKACiiigAooooAKKKKACiiigAooooAKKKKACiiigAooooAKKKKACiiigAooooAKKKKACiiigAooooAKKKKACiiigAooooAKKKKACiiigAooooAKKKKACiiigAooooAKKKKACiiigAooooA+XP24iRZ+D8H/AJaXX8oq+T8n1NfWH7cf/Hn4P/66XX8oq+TqAFyfU0ZPqaSigBcn1NGT6mkooAXJ9TRk+ppKKAFyfU0ZPqaSigBcn1NGT6mkooAXJ9TRk+ppKKAFyfU0ZPqaSigBcn1NGT6mkooA7L4OE/8AC1vCHJ/5Ctt/6MFfpFX5ufBz/kq/hD/sK23/AKMFfpHQAUUUUAFFFFABRRRQAUUUUAFFFFABRRRQAUUUUAFFFFABRRRQAUUUUAFFFFABRRRQAUUUUAFFFFABRRRQAUUUUAFFFFABRRRQAUUUUAFFFFABRRRQAUUUUAFFFFABRRRQAUUUUAFFFcH8QPiz4R8Ch49Z1NJL8DIsbUebOfqo4X/gRFAHeVXv760062a4v7qC1t1+9LPIEUfUnivjrx1+1D4i1MyQeFLODRrY5AnlAnnPvz8q/kfrXhviDxFrHiK7Nzrup3moT5yGuZmfH0B4A+lAH3V4j+Pvw90NmT+2v7QmXrHp8TTf+PcJ+tec6x+1lpse4aN4YvLj+611crF+ihv518j81c07StQ1JtunWN3dt0xBC0h/QGgD6d0G6j/acvJrbxDG2iw6Cvmw/YX3tIZjghi4xx5YxgdzXRN+yn4T2YGta6G9d0X8tlcX+zJcJ8NLvXbrx+k3h2DUIoVtG1GF4fPKFi23I5xuXP1Fe9R/Gj4eSNtXxXpwP+0WUfmVoA8pvf2TdJdT9h8T38LdvOtkk/kVrjtb/ZU8S2yM2ka3pd9josyvAx+nDD9a+ptI8c+FdYIGl+I9IunPRIryMt/3znNdECCMg8UAfnT4o+EPjrw0HfUvDl60CdZrYC4QD1JTOB9cVwjKVJDAgjgg9q/VLFcb40+GfhHxkjnXdEtZbhv+XqJfKmHvvXBP45FAH5u0V9LfET9l3UrESXfgi/GowjJ+xXZEcw9lf7rfjtr531jSr/RdQlsdWs7iyvIjh4Z4yjL+B/nQBRooooAKKKKACiiigAooooAKKKKAOx+Dn/JV/CH/AGFbb/0YK/SOvzc+Dn/JV/CH/YVtv/Rgr9I6ACiiigAooooAKKKKACiiigAooooAKKKKACiiigAooooAKKKKACiiigAooooAKKKKACiiigAooooAKKKKACiiigAooooAKKKKACiiigAooooAKKKKACiiigAooooAKKKZPNHbwvNPIkcUalnd2CqoHUknoKAH1yXxB+IfhvwFYC48Q36xSuMxWsfzzzf7qenucD3rxD4w/tKQWRm0r4fGO5uBlX1R1zGh/wCmSn7x/wBo8egPWvlTV9UvtZ1Ga/1W7nvLyZt0k0zl2Y+5NAHsnxO/aK8TeKWls9AZtB0psriB83Eg/wBqT+H6Lj6mvEZHeV2eRizscsxOST6k1JZWlxfXcVrZQS3FzKwSOKJSzOx6AAck19QfCT9mYyJDqfxCdkBwy6VA+D/21cdP91fz7UAfPHhDwd4g8YX32Tw5pVzfSj77RrhI/dnOFX8TX0L4I/ZVlkWOfxnrIizgm004bm+hkYY/JT9a+otG0nT9E0+Kw0iyt7KziGEhgjCKPwHf3q7QB574X+DfgPw4qGy8O2c8y/8ALa8H2hyfX58gfgBXe29vDbRLFbxJFGvRI1CgfgKi1HULLTLVrnUbu3tLZfvSzyCNB+JIFeaeIPj98PNGdo/7b+3yjqljC0w/764X9aAPMf24jiz8H4/56XX8oq+T8n1NfV3iqe1/aZu7az8KyS6VHoIeSaTUYxmXzsBdqoT08s5ye4rLP7Jmp7MjxVZF/T7G+Pz3UAfMua6nwt8QfFnhZ1Oha/f2qL0hEpeI/VGyv6V6nrX7LnjOzUvpt5pGojsiytE5/Blx+teT+LPAvifwjJt8RaLe2K5wJXTMbH2cZU/nQB734C/anu4njtvG2lJcRdDeWA2OPdoycH8CPpX0p4N8ZaB4y04XvhzU4L2IAb1U4kjPo6H5lP1FfmZWj4f1zVPDupxajol9PY3sX3ZYX2n6H1HseDQB+oVcz468DeHvHGmmz8RadFcgD93MPllhPqjjkfToe4NeNfBj9oyy154NH8bmHT9UYhIr5flgnPYN/wA82/8AHT7dK+iwQRkHIoA+FfjB8Atc8ECbUtG8zWNAX5jKi/voB/00QdQP7w49QK8Wr9UyARg8ivnL45fs82mtpca34GhitNV5ebTxhIbj1Kdkf2+6fbrQB8cUVPfWlxYXc1rewSW9zC5SSKVSrIw6gg9DUFABRRRQAUUUUAFFFFAHY/Bz/kq/hD/sK23/AKMFfpHX5ufBz/kq/hD/ALCtt/6MFfpHQAUUUUAFFFFABRRRQAUUUUAFFFFABRRRQAUUUUAFFFFABRRRQAUUUUAFFFFABRRRQAUUUUAFFFFABRRRQAUUUUAFFFFABRRRQAUUUUAFFFFABRRRQAUUUUAFFFcf8U/HunfDvwtJrGpxyzFn8m3gjHM0pBIXPRRgEknsO54oA0/GfizRvBuiS6r4gvEtbVOADy8jdkRerMfT88CviH4y/GrW/iHO9nbl9N8PK3yWaN80vo0pH3j/ALPQe55rkfiN471vx/rz6nrtxuxlYLdMiK3T+6i/zPU965SgBa2fCHhnVfF2vW+kaFavc3sx4A4VF7ux/hUdyag8N6HqHiTXLPSNHt2uL67kEcUa+vck9gBkk9gDX6A/Bz4ZaZ8N/Dq2tsEuNUnAa9vdvMrf3V9EHYfieTQBn/Br4O6L8ObJLjCX3iCRMTXzr93PVIgfur79T39B6hRXjPxu+OWmeAUl0vSRFqPiQj/U5zFbZ6GUjv6IOfXHcA9K8X+LNE8IaU2o+ItRhsrYZClzlpD/AHUUcsfYCvl74i/tRajeNLaeBrJbC35AvbtQ8ze6p91fx3fhXgfi3xRrPi3WJdT8QX817dv/ABOflQf3VUcKvsKx4YpJ5UihRpJXYKqKMlieAAO5oA0/EPiLWPEd4brXtTu9QnJ4a4lL7fYA8AewrK5r6P8Ahd+zLqOrxQ6h44uJdLtWwy2MODcMP9snIT6YJ+lfRHh34Q+A9AiRbLwzp0jqP9bdx/aHJ9cvn9MUAeC/sPcav4t/64W3/oT19bA56V8wftZTyeCR4WuvBznQbidrhZpNN/0YyhRHtDbMbgMnAOeprznwT+0j4z0KeNNali12xB+ZLlQkoH+zIo6/7wNAH3LUVzbw3UEkFzFHNDINrxyKGVh6EHg1y3w1+IGh/ELRBqGhTnemFuLWXAlgY9mHoexHB/OuuoA+f/in+zboWvxzX3g8pouqYLfZwP8ARZT6besf1Xj2r5D8V+G9W8Ka1NpWvWUtnexdUccMOzKejKfUcV+nlcb8Tvh5ovxD0FtP1iELOgJtrxAPMt39R6j1U8H64NAH5vV9B/s//Hi48MS2/h/xhPJcaCcJBdNlpLP0B7tH7dV7ccV474/8Jaj4I8U3mhauE+025BDxnKyIeVcexHODyK56gD9T7W4hureK4tpUmglUPHJGwZXUjIII6gipK+Mf2ZfjHL4c1C28KeIpmfRLmQJaTNybSRjwP+ubE/gTnoTX2dQB498ePgzY/EKwfUdMWK08TQp+7m6LcgdEk/kG6j3FfDGr6beaPqVzp+p20tre2zmOWGUYZGHY1+pFeK/tHfCa08baDNrWnCG38Q2EJcSMQi3ESgkxuTwCBnax6dDweAD4VopTSUAFFFFABRRRQB2Pwc/5Kv4Q/wCwrbf+jBX6R1+bnwc/5Kv4Q/7Ctt/6MFfpHQAUUUUAFFFFABRRRQAUUUUAFFFFABRRRQAUUUUAFFFFABRRRQAUUUUAFFFFABRRRQAUUUUAFFFFABRRRQAUUUUAFFFFABRRRQAUUUUAFFFFABRRRQAUUUUAFcb8X/CK+N/h7q2ihR9pkj821Y/wzJ8yfTJGD7E12VFAH5XzxPBM8UyMkiMVZWGCpHBBqOvdv2sfAJ8NeNv7esYtul60TI20cR3A++P+BfeHuW9K8JoA9X/Zj8TQ+Gvi1ppu9gttRVtPd2A+QyEbCD2+dVH0Jr79r8rY3aORXjYq6kEMpwQfUV+i3wT8bR+PPh9p2qs6m/Rfs96o6rMgAY/8CGGHs1AHQeOYtUm8Ha1H4fna31c2kv2WRQCRJtO3Ge+eM9s1+Zl1LNNcSy3LvJO7FpHkJLMxPJJPJOa/U818CftLeCG8HfEm7kt4iml6qTe2xA+UEn94g/3WJ49GWgDyavsj9k34daDB4WtPGMhjv9Yui6xs68We1ipVQf4zjJb0IA75+N6+mf2NPHC2Wq3/AIQvpdsd6TdWW48eao+dB9VAP/AD60AfXdFFFAHy5+3H/wAefg//AK6XX8oq+Tq+sf24/wDjz8H/APXS6/lFXydQB1fw08bal4C8V2us6W5Ow7J4CcLPET8yN/Q9iAa/RTwrr1j4n8PWGs6TL5tleRCWNu49VPoQcgj1Br8wK+jf2SfiUmh6tP4T1m5WPTb4ma0klbCwzAfMuTwAwH5j3oA+x6+fvj18e7bwqJ9C8ISRXevcpNcjDRWZ9PRpPboO+elcV8ef2hGvhceH/AVw0dqcx3GqoSGk7FYT2X/b6ntgcn5iJJOScmgCxqN9danfT3uoXEtzdzuZJZpWLM7HqST1qvRX0L+zh8En8TT2/ibxXbldCjbfbWsgwbxh0Yj/AJ5g/wDfX06gHR/ssfB87rbxr4ltyAPn0y2kXr6TsD/47/316V9V0iIqIFRQqgYAAwAKSWRIo2klZURQWZmOAAOpJoAVmCKWYgAckntXxz+0r8av+Ehkn8LeFLn/AIkyHbeXcZ/4+2B+4p/55g9T/Efbq/8AaJ+Ox14XPhnwbcMuk5Md3fIcG69UQ9o/U/xfTr84UAJRRS4oASiiigAooooA7H4Of8lX8If9hW2/9GCv0jr83Pg5/wAlX8If9hW2/wDRgr9I6ACiiigAooooAKKKKACiiigAooooAKKKKACiiigAooooAKKKKACiiigAooooAKKKKACiiigAooooAKKKKACiiigAooooAKKKKACiiigAooooAKKKKACiiigAooooA5X4neDbTx34Mv8AQr3CGZd8ExGfJmXlH/A8H1BI71+cuvaTeaDrN5peqQtBe2krQyxt2YH9R3B7jFfqJXzp+1d8K217TT4v0KAtqllHi9iQczwL/GPVkH5r/uigD42r2P8AZk+Io8E+NhZalNs0TVisE5Y/LDJn93J7AE7T7NntXjp4ooA/VMHNed/HT4fR/EPwPcWMKoNWtibiwkbjEgH3CfRhwffB7Vw37LfxUXxRoaeGdbuAdc06PEDuebqAdD7svQ+owfWvfaAPyxvLaazupra6ieG4hcxyRuMMjA4II7EGptI1G60jU7XUNPmaC8tZVmhlXqrqcg19Z/tQfBt9ZSbxf4Wti+oxrm/tIl5nUD/WqB1cDqO4Geo5+QaAP0a+D3xBsviJ4Qg1O3KR30eIr22B5hlxz/wE9VPpx1Brua/Nf4beOtX+H/iSLVtFkB/gnt3P7u4jzyrD+R6g194/DD4meH/iJpYn0e4Ed6ig3FhKQJoT9P4l9GHH0PFAHif7cf8Ax5+D/wDrpdfyir5Or6x/bj/48/B//XS6/lFXydQAUtJS0AFABY4Aya6TwR4H8Q+NtRFp4c02a6YECSXG2KIerueB/P0FfYfwd+AWjeCWh1PWzFq+vr8yuy/uLc/9M1PUj+8efQCgDzL4C/s+S37W3iHx5bNFZcSW+lyDDTdw0o7L/s9T3wOD9bxRpFGscSqiKAqqowAB0AFO6Vw3xO+J/h34eaeZdZufMvnUmCwhIM0vvj+Ff9o8fU8UAdZrOq2Oi6Zcahq11DaWVuu+WaZtqqP89u9fFnx3+O1542M+i+HDLZeHAdrsfllvMd2/up6L37+g4r4rfFPX/iNqIk1OX7PpsTZt9PhY+VH7n+83+0fwwOK4CgBaKAM19E/A79nq88QNBrXjaKWy0c4eKyOUmuR2Ld0Q/wDfR9utAHC/Bn4P6x8R79ZsPY6BE+J75l+9jqkY/ib9B39D9Q+Kv2efBWseG7XTdPtG0q7tI9kN9B80jHrmUH/WZPPOD6EDivWtNsLTTLCCy063itrSBBHFDEoVEUdAAOlWaAPzw+Jnwg8VeAJZJdQszd6UD8uoWoLxY7bu6H/e49Ca87r9UZI0ljaORVdGBVlYZBB6givBvil+zfoHiTzr7wqyaHqjZbylXNrKfdRyn1Xj2oA+JqK6Hxr4O1zwVq507xFYSWk/JRjykq5+8jDhh9PxxXPUAdj8HP8Akq/hD/sK23/owV+kdfm58HP+Sr+EP+wrbf8AowV+kdABRRRQAUUUUAFFFFABRRRQAUUUUAFFFFABRRRQAUUUUAFFFFABRRRQAUUUUAFFFFABRRRQAUUUUAFFFFABRRRQAUUUUAFFFFABRRRQAUUUUAFFFFABRRRQAUUUUAFBAIwaKKAPiz9pj4ON4Wv5vE/hy3J0C5fNxBGOLOQn07RsenoeOmK+f6/U29tLe+s5rW8hjntpkMckUi7ldSMEEHqCK+I/j/8ABK68EXU2teHopLjwzI2WAyz2RP8AC3qno34HnBIB43omq3uiata6lpdxJbX1rIJYpUPKsP8APTuOK++vgh8VdP8AiRoI3GO2162QfbLPP4eYnqh/Q8HsT+fFaXhvXdS8N6zbarot3JaX1u26OWM9PUEdCD0IPBFAH6gmvnX45/s+QeI5LjXfBSRWmsOS89kSEiuT3ZT0Rz/3yfY8npvgn8cdJ8ewQ6bqzRab4kA2mAnEdyfWInv/ALB5HbNeydaAPy51jSr/AEXUZrDVrOezvITtkhnQoy/ge3vTNM1G80q+hvNNup7S7hO6OaByjofYjmv0j8b+BfDnjaxFt4j0uC72jEcuNssX+645H06e1fO3jL9lOZXkm8H64jpyVttRXBHt5iDn8VFAHP8Age0179onT7jTPE+urDceH0ElrdC0Vmk804YSYK5x5a4IweTnNSXv7KfitJMWWtaJMnrI0sZ/II3866b4FaTL8E9b1gfEma00eLVIo0spnmDxzmNmL4K5xjev3sda95t/iT4JuFBi8W6Cc9jfxA/kTQB8y6b+yj4kkcf2lr+kW6Z5MCyTH8iF/nXp/g/9mXwfo7pNrc13rk64O2Y+TDn/AHF5P4sa9Cvvir4Dsl3TeLdFI64ju1kP5LmuJ8Q/tKeAtMVxYT32rSjgC1tyqk/70m3j6ZoA9g0vTbHSLGKy0u0t7O0iGEhgjCIv0A4qr4k8R6P4Z05r/X9RtrC0X/lpO4XcfRR1Y+wBNfI/jP8Aaj8SakskPhnT7XR4TkCaQ/aJvqMgKPyNeF6/r2q+Ib9r3XNRur+6b/lpcSFyB6DPQew4oA+j/il+07LOk2n/AA/gaBDlTqd0g3/WOM8D6tz7CvmfU9QvNUv5r3Urma6u5m3yTTOXdz6knk1VqW2t5rq4jgtYZJp5DtSONSzMfQAck0ARVs+FPDOseK9Xi0zw/YTXt5J/DGOEH95m6KPc8V7X8L/2atc1xob3xi76Lpxw32YYN1IPTHSP8cn2r6y8G+END8G6SuneHdPhs7fguV5eRv7zseWP1oA8o+DH7P8ApXg/yNV8S+TquvLhkXGYLZv9kH7zD+8R9AOte60UUAFFFZfiLxBpPhvTnv8AXdRtrC0X/lpPIFBPoO5PsMmgDUrk/iF8QPD3gHSzeeIL1Y3YEw20fzTTn0Rf6nAHc14B8Tf2ocrLY+ALQjPy/wBpXifrHF/Vv++a+Zda1fUNc1KbUNXvJ729mOXmncsx/E9vbpQB3Xxk+LWr/ErUEW4jSz0e3cta2Sc7T03O38TY+gHYV5tRRQB2Pwc/5Kv4Q/7Ctt/6MFfpHX5ufBz/AJKv4Q/7Ctt/6MFfpHQAUUUUAFFFFABRRRQAUUUUAFFFFABRRRQAUUUUAFFFFABRRRQAUUUUAFFFFABRRRQAUUUUAFFFFABRRRQAUUUUAFFFFABRRRQAUUUUAFFFFABRRRQAUUUUAFFFFABRRRQAUyeGO4hkhnjSSKRSjo6hlZSMEEHqKfRQB8mfG79nOW3a41v4fQtLCSXm0kHLJ6mH1H+x19M9K+YpopIJXimRo5EYqyMMFSOoIPQ1+qFeZ/FT4M+GfiCr3FzCdP1jGF1C2UB29PMXo4+vPoRQB+fKO0bq6MVZTkEHBB9a99+F37SWueHEhsPFcT63pqAKs+7F1GP948Sf8C5964/4j/BLxf4IaWeayOpaWuSL2yUuoHq6/eT8Rj3rzHFAH6QeB/ib4S8axJ/YWsW73LDm0mPlTr7bG5P1GR712eRX5WqzKwZSQQcgjqK7zwz8X/HfhxUTTvEl60KdIbki4QD0AcHA+mKAPc/24uLPwfj/AJ6XX8oq+T6+lvBJ1D9pL7RZeMr5LNtBQSW8thbhTIZTht4YkHHljGMdTXQv+yXpxb5PFd2o9DZKf/ZqAPkjNJX2BB+yfoit/pHiTUpB/wBM4I0/nmuh0z9mLwHaYN02r357ia6CA/8AfCr/ADoA+H8Guj8LeBvE/iqRV8P6Hf3qt/y0SIiMfVzhR+Jr768P/CnwNoDK+meGNNSRfuyTRec4+jPk12iIqIERQqgYCgYA/CgD5E8Efsr6pdNHP4x1WKwh6m1sv3sp9i5+Vfw3V9G+A/hv4W8DQ7fD2lQw3BGHu5P3k7/VzyB7DA9q7CkLAAknAHegBaK4jxT8VvBHhgONV8RWImUcwQP58mfTamSPxxXjfi39qzT4N8XhXQp7pxwJ79xEn12LkkfUigD6bzXGeNfid4Q8GK413WraO5X/AJdYj5sxPpsXJH44FfE/jH42eOvFQeK71qSztH621gPITHoSPmI+pNecMzMxZiSxOST1NAH0x49/am1C68y28FaYtjEeBeXoEkv1WMfKv4lq+e/EfiLWPEuoNfa9qV1qF0f+Wk8hbaPRR0UewwKyaKACiiigAooooA7H4Of8lX8If9hW2/8ARgr9I6/Nz4Of8lX8If8AYVtv/Rgr9I6ACiiigAooooAKKKKACiiigAooooAKKKKACiiigAooooAKKKKACiiigAooooAKKKKACiiigAooooAKKKKACiiigAooooAKKKKACiiigAooooAKKKKACiiigAooooAKKKKACiiigAooooAMV5142+DHgjxezzX+jx2t6/JurE+RIT6nHysf94GvRaKAPkvxP+yheRl38MeIYJl6rDqERjI9t6ZB/wC+RXmWtfAP4i6UxzoDXkY/5aWcySg/hnd+lfoDRgUAfKP7KNlc+B9b8Rp4zhfQGuoYVt/7TH2bzirPu2F8bsZGcZ6ivpgeJdDIBGs6aQehF1H/AI185ftx/wDHn4P/AOul1/KKvk/P0/KgD9OJ/Fvhy3GZ9f0iIf7d7GP/AGasK/8Aiz4CsM+f4t0c46iK4Ep/8czX5yZ+n5UZNAH3hqv7R/w7sSwg1G8vyO1tZvz+L7RXC63+1jpyKw0Pwzdzt/C95cLEB/wFQ386+SKKAPc/EH7TfjnUdy6cNN0pCMAwW/mOPxkJH6V5h4j8c+KPEm4a5r+pXqH/AJZSTt5f/fAwo/KubooAXNJRRQAUUUUAFFFFABRRRQAUUUUAdj8HP+Sr+EP+wrbf+jBX6R1+bnwc/wCSr+EP+wrbf+jBX6R0AFFFFABRRRQAUUUUAFFFFABRRRQAUUUUAFFFFABRRRQAUUUUAFFFFABRRRQAUUUUAFFFFABRRRQAUUUUAFFFFABRRRQAUUUUAFFFFABRRRQAUUUUAFFFFABRRRQAUUUUAFFFFABRRRQAUUUUAFFFFAHy5+3H/wAefg//AK6XX8oq+T8H0r9NvFHhHQPFS2w8RaTaaiLYsYRcJu2bsZx9cD8qwf8AhUPw/wD+hS0j/vxQB+c+D6UYPpX6Mf8ACofh/wD9ClpH/fij/hUPw/8A+hS0j/vxQB+c+D6UYPpX6Mf8Kh+H/wD0KWkf9+KP+FQ/D/8A6FLSP+/FAH5z4PpRg+lfox/wqH4f/wDQpaR/34o/4VD8P/8AoUtI/wC/FAH5z4PpRg+lfox/wqH4f/8AQpaR/wB+KP8AhUPw/wD+hS0j/vxQB+c+D6UYPpX6Mf8ACofh/wD9ClpH/fij/hUPw/8A+hS0j/vxQB+c+D6UYPpX6Mf8Kh+H/wD0KWkf9+KP+FQ/D/8A6FLSP+/FAH5z4PpRg+lfox/wqH4f/wDQpaR/34o/4VD8P/8AoUtI/wC/FAH5z4PpRg+lfox/wqH4f/8AQpaR/wB+KP8AhUPw/wD+hS0j/vxQB8MfBwH/AIWt4Q4/5itt/wCjBX6RVxmnfC7wRpt/b3tj4Y0uC7t5FlilSHDI4OQR7g12dABRRRQAUUUUAFFFFABRRRQAUUUUAFFFFABRRRQAUUUUAFFFFABRRRQAUUUUAFFFFABRRRQAUUUUAFFFFABRRRQAUUUUAFFFFABRRRQAUUUUAFFFFABRRRQAUUUUAFFFFABRRRQAUUUUAFFFFABRRRQAUUUUAFFFFABRRRQAUUUUAFFFFABRRRQAUUUUAFFFFABRRRQAUUUUAFFFFABRRRQAUUUUAFFFFABRRRQAUUUUAFFFFABRRRQAUUUUAFFFFABRRRQAUUUUAFFFFABRRRQAUUUUAFFFFABRRRQAUUUUAFFFFABRRRQAUUUUAB4rwLUf2ofClhqFzaS6RrjSQSvExVIsEqSDj5/avfW6fjX5g+Lf+Rp1j/r8m/8ARjUAfXP/AA1Z4R/6A2vf9+4f/jlH/DVnhH/oDa9/37h/+OV8YUUAfZ//AA1Z4R/6A2vf9+4f/jlW7H9qPwPOwW4s9ctv9p7dGA/75cn9K+JaKAP0Z8JfFvwR4rlSHSPEFqbp+Ft7jMEhPoA4G4/TNd3X5WZNfRP7O/xxvtG1O08N+Lbt7rRrhhDb3UzZe0Y8KCx6xk8c/d69OKAPqf4g+K7fwT4Vu9evbO7u7W1KealqFLgMwXdhiBgEjNeO/wDDVnhH/oDa9/37h/8Ajle4eK9Gg8ReGtU0e6A8m+tpLdie25SAfwOD+FfmTqVnNp2oXNldpsubaVoZVP8ACykgj8waAPsq1/an8Hz3MUTaXrcSu4UyOkW1cnGTh+gr6AUhgCDkHoRX5Wiv0Z+B/iH/AISf4V+HdRdw8/2YW8x7+ZH8jE/Xbn8aAO6ooqlreowaPo99qV2dtvZwPcSHP8KKWP8AKgDyLxt+0T4X8JeKdQ0K60/Vrq4spBFJLbpGULYBIGXB4zg8dQaxP+GrPCP/AEBte/79w/8Axyvj7W9Rn1fWL7Urtt1xeTvcSH/adix/nVWCJ5pkiiUvI7BVUDJJJwBQB+kvw08bWnj/AMMrrmnWd5aWjyvEi3QUM+3ALDaSMZyPwNcD44/aH8N+D/FWoaDqGmaxNdWThHkgSMoxKhuMuD39K9G+Hfh5PCngbRdEQAGztUjkx3kxlz+LFjXwx+0f/wAls8U/9d0/9FJQB9C/8NWeEf8AoDa9/wB+4f8A45Xrvw38aWPj3wvDrul29zb20sjxhLgKHBU4P3SR+tfmnX3f+yT/AMkZsP8Ar6uP/Q6AOn+LPxQ0n4Z22mzazaX1yt87pGLVUJUoATncw/vCvOP+GrPCP/QG17/v3D/8crH/AG4f+QT4S/673P8A6DHXyRQB9n/8NWeEf+gNr3/fuH/45To/2q/BxJ8zSdfUe0UJ/wDalfF9GD6UAfcNl+074CuCBMusWuepltAQP++WNd/4T+J/gzxXIkWh+ILKa4f7tvIxilPsEcAn8K/N6nKxUggkEcg+lAH6pUV8bfAL4932jahbaD40vHu9GlIjhvZ23SWh6Dcx5aP68r16DFfZCsGUFSCDyCKAOE+LHxN0r4aWen3OsWl9cpeyPGgtVUlSoBOdzD1rzb/hqzwj/wBAbXv+/cP/AMcrL/bf/wCQB4X/AOvqf/0Ba+RKAP0D+Ffxo0P4ka5daXo9hqVtNb25uWa6VApUMq4G1jzlhXqNfGP7FH/JRdZ/7BTf+jo6+zqACiisbxnr9v4W8K6rrd5jybG3eYrnG4gfKv1JwPxoA828b/tCeEvCHie+0K+tdWurqzYJLJaxRtHuKglQWcHIzg8dc1hf8NU+Cv8AoGeIf+/EP/x2vjXVr+41TU7u/vZDJdXUrzyuf4nYkk/maq0Afan/AA1T4K/6BniH/vxD/wDHa9t8Na1Z+ItA0/WNNcvZ3sKzxFhggMM4I7EdCPUV+XtfY/7Gfi7+0PCuoeGLmTM+mSefbgnrDIeQPo+f++xQB9G0UUUAFFFFABRRRQAUUUUAFFFFABRRRQAUUUUAFFFFABRRRQAUUUUAFFFFABRRRQAUUUUAFFFFABRRRQAUUUUAFFFFABRRRQAUUUUADdPxr8wfFv8AyNOsf9fk3/oxq/T5un41+YPi3/kadY/6/Jv/AEY1AGTX1t4B/Zu8I+IfBOhaxeajriXN/ZRXMixTRBAzqCQAYycc+tfJNfpH8HP+SUeEP+wVbf8AosUAeYH9lbwVjjVPEOf+u8P/AMbrhfiH+y7c6bpk994N1OXUXhUubG6QCVwP7jrwW9iBn1r66oNAH5WurIxVwVYHBBGCDSCvUf2ltCh0H4w63HaoEguyl6qgYwZFy3/j+6vLaAP0T+AniWTxV8KdBv7mQvdpEbWdj1Lxkpk+5AB/Gvk79qrwz/YHxZvbmKPba6tGt8mOm4/LIPruUn/gVe6/sX3LS/C/UIWJPk6rIB7Axxn+eag/bM8M/wBo+BdP16GPM2lXOyRgOkMuFP5OE/M0AfF9fXX7E/iLztE1/wAPSud1tMl7CD/dcbXx9Cq/99V8i16z+y/4h/sD4waSrvtg1IPYSc4zvGU/8fVKAPvuvGv2sPEX9ifCW7tIn23GrTJZLjrs++5+m1cf8Cr2WvjX9tDxF9u8a6VoUTkxaba+bIM9JZTnH/fKr+dAHzrXp/7N/hn/AISb4t6NFKm61sWN/NxkYjwV/Nyg/GvMK+vv2KvDP2bw/rXiSaPD3kwtICevlx8sR7FmA/4BQB9LHpX56/tH/wDJbPFP/XdP/RSV+hR6V+fX7TH/ACW/xP8A9dIf/REdAHmFfd/7JP8AyRmw/wCvq4/9Dr4Qr7v/AGSf+SM2H/X1cf8AodAHD/tw/wDIJ8Jf9d7n/wBBjr5Ir63/AG4f+QT4S/673P8A6DHXyRQB7d+yp4Q0Hxj4v1e08S6dHf28Nh5saOzKFbzFGflI7E19NyfAr4bOhU+FrcA91nmB/PfXgX7Ev/I+a7/2DP8A2qlfZFAHzj49/Zd0K9spZvBt3cabfKCUt7mQywOfTJ+Zfrk/SvkjXdIvtB1e70vVrZ7a+tZDHNE/VWH8x3B6EHNfqLXyN+2v4chttZ0DxBAirJeRyWtwQMbjHgoT74Yj6KKAPmUV96fsueLZPFHwttYryUyX2lSGxkZj8zIoBjJ/4CQP+Amvgqvp79iHUHTVvFGnFsxyQQ3AX0Ksyk/+Pj8qAN39t/8A5AHhf/r6n/8AQFr5Er67/bf/AOQB4X/6+p//AEBa+RKAPob9ij/kous/9gpv/R0dfZ1fGP7FH/JRdZ/7BTf+jo6+zqACvmr9tDxd9j0DS/C1tJiW+f7XcgH/AJZIcID7F8n/AIBX0oxCgknAHevzm+Nfi3/hNPiTrOqxvus/N+z2voIU+VSPrgt/wKgDha+hPgv8K/8AhJ/gv4z1OWANfXq+VppI5BgPmEr/ALzYT8DXgVjazXt5Ba2sZkuJ5FijQdWZjgD8yK/S7wF4dh8J+DdI0K3xtsrdY2Yfxv1dvxYsfxoA/MsjBxXf/Ajxb/whnxN0jUZX2WUr/ZLvnjypMAk/7p2t/wABqX4/+Ff+ER+Kes2UUeyzuJPtlqB08uT5sD2Dbl/4DXnYoA/VMHIorzf9nzxd/wAJh8LtJu5pN99aL9iusnJ8yMAAn3ZdrfjXpFABRRRQAUUUUAFFFFABRRRQAUUUUAFFFFABRRRQAUUUUAFFFFABRRRQAUUUUAFFFFABRRRQAUUUUAFFFFABRRRQAUUUUAFFFFAA3T8a/MHxb/yNOsf9fk3/AKMav0+bp+NfmD4t/wCRp1j/AK/Jv/RjUAZNfpH8HP8AklHhD/sFW3/osV+blfpH8HP+SUeEP+wVbf8AosUAdjRRRQB8R/tloF+LFqQOW0uEn/vuQV4PXvP7Zv8AyVez/wCwVD/6MlrwagD7O/Yo/wCSdaz/ANhVv/RMde1eOdBi8T+ENY0SYDbfWrwgn+FiPlb8GwfwrxX9ij/knWs/9hVv/RMdfQ1AH5Y3dvLa3U1vcIUmicxup6qwOCPzFP028m0/ULa8tm2XFvKs0bejKQQfzFenftOeGv8AhG/i5qpij2WupY1CLAwPnzv/APHw/wCdeUUAfqD4f1eDWvDun6vAyi2vLaO5U54Csobr7Zr85PiX4gPirx7rutFtyXd27Re0YO1B+Cha+hPAvxE+w/sn6zmbGoad5mkw/wB798fkI+iyN/3xXysaAFRWdwqAsxOAAMkmv0o+FvhtfCXw+0LRNoWS1tl87jrK3zSH/vpmr4c/Z78Nf8JT8WNDtZE32ttL9tuM9NkXzYPsW2j8a/Q0UAB6V+fX7TH/ACW/xP8A9dIf/REdfoKelfn1+0x/yW/xP/10h/8AREdAHmFfd/7JP/JGbD/r6uP/AEOvhCvu/wDZJ/5IzYf9fVx/6HQBw/7cP/IJ8Jf9d7n/ANBjr5Ir63/bh/5BPhL/AK73P/oMdfJFAH0Z+xL/AMj5rv8A2DP/AGqlfZFfG/7Ev/I+a7/2DP8A2qlfZFABXzP+27PGvh7wxbkjzXuppAO+FQA/qwr6UubiG2gknuZY4oY1LvJIwVVUdSSeAK+CP2kfiDB498dZ0t/M0fTUNtbP2lOcvIPYnAHsoPegDyavo39iVT/wnOvNj5RpoBPuZV/wr5yr6v8A2IdIZbbxRrDg7XeG0jOO6hnb/wBCSgC5+2//AMgDwv8A9fU//oC18iV9d/tv/wDIA8L/APX1P/6AtfIlAH0N+xR/yUXWf+wU3/o6Ovs6vjH9ij/kous/9gpv/R0dfZ1AHmP7Rvi7/hEfhZqk0Mmy+vx9gtsHndIDuYfRAx+uK/Po17/+2J4u/tfx3beH7aTNro8X7wA8GeQBm/Jdg+pNfP8AQB7R+yh4U/4SH4owX88e6z0aM3jZ6GT7sQ+u4lv+AV92V+dnw1+LGv8Aw6sr228PQaaRdyLJLJcQF3O0YAyGHA549zXZf8NP+Pf+eWif+Arf/F0Aenfto+FftnhzSfE1umZbCX7LcEf88pOVJ9g4x/wOvj6vXvFX7QHi/wAUeHb/AEXVrfRnsr2MxyBbVgw7gg7+CCAR7ivIaAPoX9jjxf8A2V40vPDlzJi21eLfCCeBPGCR+abv++RX2fX5eeHtWudB12w1WwbbdWU6XEZ/2lIOD7cYr9MPDOs23iHw/p2r2Lbra9gSePnoGGcH3HT8KANOiiigAooooAKKKKACiiigAooooAKKKKACiiigAooooAKKKKACiiigAooooAKKKKACiiigAooooAKKKKACiiigAooooAKKKKABun41+YPi3/kadY/6/Jv/AEY1fp8elfm94o8H+JZfEurSReHdZdGu5irLYykEF25B20AcZX6R/Bz/AJJR4Q/7BVt/6LFfn3/whnij/oW9a/8AACX/AOJr9CfhLBNa/DDwpBcxSQzx6Zbo8cilWVhGMgg8g0AdZRRRQB8Sftm/8lXs/wDsFQ/+jJa8Gr6N/a68Pa1qvxPtJ9M0jUbyAaZEhkt7Z5FDeZJxlQRnkV4j/wAIZ4o/6FvWv/ACX/4mgD6v/Yo/5J1rP/YVb/0THX0NXgv7Hel6hpXgDV4dUsbqylbU2dUuYWjYr5UYyAwHHBr3qgD5w/bS8M/bPCmkeIYUBl0+c28xHXypehP0dQP+BV8dV+mHxI8Or4s8C63ojAFry1dI89BIBlD+DBTX53t4L8UhiD4b1rIOD/oMv/xNAGbFql5Fo9xpaTMLGeeO4ki7M6KyqfwDt+dUa3/+EM8Uf9C3rX/gBL/8TS/8IZ4o/wChb1r/AMAJf/iaAPpX9ijwz5Wm674mmQh53WxgJH8K4d8exJQf8Br6frjvhB4a/wCER+G+g6O6BLiG2V5xjH71/nf/AMeYj8K7GgAPSvz6/aY/5Lf4n/66Q/8AoiOv0FPSvhL9orwxr+ofGXxJc2Oh6pc20jxbJYbSR0bEKDggYPIoA8Yr7v8A2Sf+SM2H/X1cf+h18X/8IZ4o/wChb1r/AMAJf/ia+2f2WrC8034RWNvqNpcWlwtzcExTxtGwBfjggGgDz79uH/kE+Ev+u9z/AOgx18kV9i/tm6PqWraX4WXStOvL5o5rguLaBpSuVTGdoOK+Wf8AhDPFH/Qt61/4AS//ABNAGj8NfiDrPw71S6v9AW0ae5h8h/tMZcbdwbgAjnIFegy/tOePnQhRo8Z/vLaEn9WNeW/8IZ4o/wChb1r/AMAJf/iaP+EM8Uf9C3rX/gBL/wDE0AavjX4n+MPGcZh1/W7ie0Jz9mjAii9sooAP45rjK6W28A+L7lgIPC2uyHp8thL/APE11/hz4B/ELWplU6I2nQnrNfyLEF/4Dy35CgDzGytZ767htbOGSe4mcRxxRrlnYnAAHck1+ivwW8Gf8IJ8PNM0aYL9tCme7ZTkGZ+WGe+OFz6LXMfBn4HaP8PWXUbuQap4gIwLlkwkAI5ES9j23Hk+3Nev0AfM37b/APyAPC//AF9T/wDoC18iV9k/tl6RqWraH4aTStPvL147mYuttA0pUFFxnaDivlX/AIQzxR/0Letf+AEv/wATQB7P+xR/yUXWf+wU3/o6OvrnxVrVt4c8OalrN8cW1jbvO4/vbRkAe5OB+NfLP7HmgaxpPj/V5tU0nULKJtMZFe5tnjUt5sZwCwHPBr0H9rjUNYm8H2Ph7QdO1C8bUZvNumtbd5AsUeCFJUcZcqf+A0AfGmu6pc61rN9qd85e6vJ3uJW9WYkn+dP8N6Nd+Ite0/R9NVWvL6dIItxwoZjjJPYDqT6Crv8Awhnij/oW9a/8AJf/AImvcf2S/h/qS+PrnXNc0u8s4tMtz5H2q3aPdNJlQRuAzhd/TpkUAZ//AAyt41/6Cfh7/v8Azf8Axqj/AIZW8a/9BPw9/wB/5v8A41X2pRQB8V/8MreNf+gn4e/7/wA3/wAarzD4nfD7WPhzrkGma41tLJNALiOW2ZmjZSSMZIByCOePSv0jrwH9r7wZc+IfCOmatpVnNdX+m3BjaOCMu7QyDB4HJwyr+ZoA+Ka+yv2NPF39peEL/wANXMmbjSpfNgBPJgkJOB9H3f8AfQr5U/4QzxR/0Letf+AEv/xNeh/AWPxP4L+Juk6hP4f1qOwnb7Jdk2MoAikwMn5eittb/gNAH3Dr2u6V4fsjea5qNpp9rnb5tzKI1J9BnqfYUzw/4g0jxFZm60LU7PULdTtZ7aUSBT6HHQ+xrwz46xXMnj4LLI8V1LptrFoMzO0caTm9T7TtYEFZPKxkgg7M4qP4OLdf8LLtlWWWXVobS+TxBhjIkY88fZYzISfMIAYq7EsUPPSgD6LooooAKKKKACiiigAooooAKKKKACiiigAooooAKKKKACiiigAooooAKKKKACiiigAooooAKKKKACiiigAooooAKKKKACjFFFABiiiigAooooAMUYoooAKKKKACjFFFABijFFFABRRRQAUYoooAMUUUUAFGKKKADFGKKKADFGKKKACiiigAoxRRQAYoxRRQAYoxRRQAUUUUAFFFFABijFFFAFLVtK0/WbNrTV7G1vrViCYbmFZUJHQ7WBFN0bRtM0S0+y6Np1np9tnd5VrCsSZ9cKAM1fooAKKKKACiiigAooooAKKKKACiiigAooooAKKKKACiiigAooooAKKKKACiiigAooooAKKKKACiiigAooooAKKKKACiiigAooooAKKKKACiiigAooooAKKKKACiiigAooooAKKKKACiiigAooooAKKKKACiiigAooooAKKKKACiiigAooooAKKKKACiiigAooooAKKKKACiiigAooooAKKKKACiiigAooooAKKKKACiiigAooooAKKKKACiiigAooooAKKKKACiiigAooooAKKKKACiiigAooooAKKKKACiiigAooooAKKKKACiiigAooooAKKKKACiiigAooooAKKKKACiiigAooooAKKKKACiiigAooooAKKKKACiiigAooooAKKKKACiiigAooooAKKKKACiiigAooooAKKKKACiiigAooooAKKKKACiiigAooooAKKKKACiiigAooooAKKKKACiiigAooooAKKKKACiiigAooooAKKKKACiiigAooooAKKKKACiiigAooooAKKKKACiiigAooooAKKKKACiiigAooooAKKKKACiiigAooooAKKKKACiiigAooooAKKKKACiiigAooooAKKKKACiiigAooooAKKKKACiiigAooooAKKKKACiiigAooooA//Z;clipPath=inset(9.76% 22% 12.13% 20%);" vertex="1" parent="1">
          <mxGeometry x="508.64" y="309.25" width="52.72" height="40" as="geometry" />
        </mxCell>
        <mxCell id="7ELZMdTYusCNaWPxi7oc-23" value="&lt;div&gt;ollama - dep&lt;/div&gt;" style="rounded=0;whiteSpace=wrap;html=1;fontFamily=Helvetica;fontSize=13;labelBackgroundColor=default;strokeWidth=2;strokeColor=light-dark(#000000,#000000);textShadow=0;labelBorderColor=none;shadow=0;sketch=1;curveFitting=1;jiggle=2;" vertex="1" parent="1">
          <mxGeometry x="495" y="291.25" width="80" height="17.5" as="geometry" />
        </mxCell>
        <mxCell id="7ELZMdTYusCNaWPxi7oc-24" value="&lt;div&gt;1 x L40S&lt;/div&gt;" style="rounded=0;whiteSpace=wrap;html=1;fontFamily=Helvetica;fontSize=13;labelBackgroundColor=default;strokeWidth=2;strokeColor=light-dark(#000000,#000000);textShadow=0;labelBorderColor=none;shadow=0;sketch=1;curveFitting=1;jiggle=2;" vertex="1" parent="1">
          <mxGeometry x="500" y="352.5" width="70" height="17.5" as="geometry" />
        </mxCell>
        <mxCell id="7ELZMdTYusCNaWPxi7oc-25" value="&lt;font style=&quot;font-size: 14px;&quot;&gt;k8s&amp;nbsp;&lt;/font&gt;" style="rounded=0;whiteSpace=wrap;html=1;fontFamily=Helvetica;fontSize=13;labelBackgroundColor=default;strokeWidth=2;strokeColor=none;textShadow=0;labelBorderColor=none;shadow=0;sketch=1;curveFitting=1;jiggle=2;fillColor=none;fillStyle=solid;rotation=0;fontStyle=1" vertex="1" parent="1">
          <mxGeometry x="190" y="183.75" width="50" height="30" as="geometry" />
        </mxCell>
      </root>
    </mxGraphModel>
  </diagram>
</mxfile>
